<svg xmlns="http://www.w3.org/2000/svg" fill="none" viewBox="0 0 180 180" id="Numpy--Streamline-Svg-Logos" height="180" width="180"><desc>Numpy Streamline Icon: https://streamlinehq.com</desc><path fill="#4dabcf" d="m130.9355625 121.8774375 0.038250000000000006 38.9844375L96.3796875 178.125V139.1574375l34.555875 -17.279999999999998Zm41.518125 -20.835749999999997v39.12075L142.948125 154.8875625l-0.021187499999999998 -38.941874999999996 29.52675 -14.904ZM130.884375 69.6965625l0.0384375 38.5756875 -34.543124999999996 17.1650625V86.848875l34.5046875 -17.1523125Zm41.5693125 -20.665499999999998v38.3330625L142.9183125 102.37875l-0.0255 -38.652375 29.560875 -14.6953125Zm-81.333 -4.5350624999999996 30.87675 15.585375L89.96249999999999 76.1690625 59.669062499999995 60.954375l31.451625 -16.458374999999997Zm-42.9489375 -21.678749999999997 29.45025 14.8655625 -31.523999999999997 16.4540625 -30.2465625 -15.189375000000002 32.3203125 -16.13025Zm84.186 0.2255625 31.7199375 15.9046875 -28.3685625 14.2483125 -30.9406875 -15.606750000000002 27.5893125 -14.54625ZM90.14981250000001 1.875l28.556062500000003 14.31631875L91.3250625 30.81 61.900499999999994 15.969899999999999 90.14981250000001 1.875Z" stroke-width="1.875"></path><path fill="#4d77cf" d="m84.16574999999999 86.84925 -23.3011875 -11.7144375v50.635125S32.368125000000006 65.136375 29.728125000000002 59.6900625c-0.3406875 -0.7025625 -1.7416874999999998 -1.473375 -2.0994374999999996 -1.6606875 -5.1099375 -2.68275 -20.082 -10.26675 -20.082 -10.26675v89.45775l20.7121875 11.0715V101.5318125s28.194187499999998 54.178125 28.479375 54.769875c0.285375 0.5919375 3.1171875 6.302250000000001 6.1404375 8.307937500000001 4.0284375 2.6656874999999998 21.291375 13.047374999999999 21.291375 13.047374999999999l-0.0043125 -90.80775Z" stroke-width="1.875"></path></svg>