<svg xmlns="http://www.w3.org/2000/svg" fill="none" viewBox="0 0 180 180" id="Seaborn--Streamline-Svg-Logos" height="180" width="180"><desc>Seaborn Streamline Icon: https://streamlinehq.com</desc><path fill="#ffffff" d="M23.034375 69.38137499999999c-2.688 0 -5.3498625 0.5295 -7.833225 1.558125 -2.48334375 1.028625 -4.73994375 2.5365 -6.6406125 4.437187499999999 -1.90066875 1.9006875 -3.4084875 4.15725 -4.4371125 6.640499999999999 -1.02864375 2.4834375 -1.558125 5.1451875 -1.558125 7.833187499999999 0 2.688 0.5294812499999999 5.34975 1.558125 7.833187499999999 1.028625 2.48325 2.53644375 4.74 4.4371125 6.6406875 1.90066875 1.9005 4.15726875 3.4083750000000004 6.6406125 4.437 2.4833625 1.028625 5.145225 1.558125 7.833225 1.558125 2.6878125 0 5.34975 -0.5295 7.833 -1.558125 2.4834375 -1.028625 4.74 -2.5365 6.6406875 -4.437 1.9006875 -1.9006875 3.4085625 -4.1574374999999995 4.437187499999999 -6.6406875 0.9954375000000001 -2.4031875 1.5234375 -4.973625 1.5564375 -7.573124999999999l0.0016875 -0.2600625 -0.0016875 -0.2600625c-0.033 -2.5995 -0.561 -5.1697500000000005 -1.5564375 -7.573124999999999 -1.028625 -2.48325 -2.5365 -4.739812499999999 -4.437187499999999 -6.640499999999999 -1.9006875 -1.9006875 -4.15725 -3.4085625 -6.6406875 -4.437187499999999 -2.48325 -1.028625 -5.1451875 -1.558125 -7.833 -1.558125Z" stroke-width="1.875"></path><path fill="#afdad2" stroke="#ffffff" stroke-width="0.4688" d="M18.359212499999998 81.13331249999999c0.20908125 0 0.409725 -0.0830625 0.5574749999999999 -0.2308125 0.1479375 -0.1479375 0.231 -0.348375 0.231 -0.5574375 0 -0.20925000000000002 -0.0830625 -0.4096875 -0.231 -0.557625 -0.14775 -0.14775 -0.34839375 -0.2308125 -0.5574749999999999 -0.2308125 -0.20909999999999998 0 -0.40965 0.0830625 -0.55749375 0.2308125 -0.14784375 0.1479375 -0.23092500000000002 0.348375 -0.23092500000000002 0.557625 0 0.2090625 0.08308125000000001 0.40950000000000003 0.23092500000000002 0.5574375 0.14784375 0.14775 0.34839375 0.2308125 0.55749375 0.2308125Z"></path><path fill="#afdad2" stroke="#ffffff" stroke-width="0.4688" d="M16.6608 82.32243749999999c0.20249999999999999 0 0.39673125 -0.0804375 0.539925 -0.2236875 0.14319374999999998 -0.1430625 0.22365 -0.3373125 0.22365 -0.5398125 0 -0.20249999999999999 -0.08045624999999999 -0.39675000000000005 -0.22365 -0.5399999999999999 -0.14319374999999998 -0.14325 -0.33742500000000003 -0.2236875 -0.539925 -0.2236875 -0.20251875 0 -0.39675000000000005 0.0804375 -0.5399437500000001 0.2236875s-0.22363125 0.33749999999999997 -0.22363125 0.5399999999999999c0 0.20249999999999999 0.0804375 0.39675000000000005 0.22363125 0.5398125 0.14319374999999998 0.14325 0.33742500000000003 0.2236875 0.5399437500000001 0.2236875Z"></path><path fill="#afdad2" stroke="#ffffff" stroke-width="0.4688" d="M15.0286125 83.07825c0.19066875 0 0.3735375 -0.07575 0.5083687499999999 -0.21056249999999999 0.1348125 -0.1348125 0.21056249999999999 -0.3178125 0.21056249999999999 -0.5085 0 -0.1906875 -0.07575 -0.3735 -0.21056249999999999 -0.5083125000000001 -0.13483125 -0.1348125 -0.31770000000000004 -0.21056249999999999 -0.5083687499999999 -0.21056249999999999 -0.19065000000000001 0 -0.3735375 0.07575 -0.5083500000000001 0.21056249999999999 -0.1348125 0.1348125 -0.21056249999999999 0.317625 -0.21056249999999999 0.5083125000000001 0 0.1906875 0.07575 0.3736875 0.21056249999999999 0.5085 0.1348125 0.1348125 0.31770000000000004 0.21056249999999999 0.5083500000000001 0.21056249999999999Z"></path><path fill="#afdad2" stroke="#ffffff" stroke-width="0.4688" d="M19.790625 80.19506249999999c0.21525 0 0.4216875 -0.0856875 0.5739375 -0.23775 0.15225 -0.15225 0.23775 -0.358875 0.23775 -0.574125 0 -0.21525 -0.0855 -0.4216875 -0.23775 -0.5739375s-0.3586875 -0.23775 -0.5739375 -0.23775c-0.21525 0 -0.4216875 0.0855 -0.5739375 0.23775s-0.23775 0.3586875 -0.23775 0.5739375c0 0.21525 0.0855 0.421875 0.23775 0.574125 0.15225 0.15206250000000002 0.3586875 0.23775 0.5739375 0.23775Z"></path><path fill="#afdad2" stroke="#ffffff" stroke-width="0.4688" d="M13.80320625 81.3744375c0.14465625 0 0.28340625 -0.0575625 0.38568749999999996 -0.15975 0.10228125 -0.10237500000000001 0.15975 -0.24112499999999998 0.15975 -0.38568749999999996 0 -0.14475000000000002 -0.05746875 -0.2835 -0.15975 -0.38568749999999996 -0.10228125 -0.10237500000000001 -0.24103125 -0.15975 -0.38568749999999996 -0.15975s-0.28340625 0.057374999999999995 -0.38568749999999996 0.15975c-0.1023 0.1021875 -0.15976875 0.2409375 -0.15976875 0.38568749999999996 0 0.1445625 0.05746875 0.2833125 0.15976875 0.38568749999999996 0.10228125 0.1021875 0.24103125 0.15975 0.38568749999999996 0.15975Z"></path><path fill="#afdad2" stroke="#ffffff" stroke-width="0.4688" d="M12.45650625 84.3609375c0.1718625 0 0.33669375 -0.06825 0.45823125 -0.18975 0.12151875000000001 -0.1215 0.1897875 -0.2865 0.1897875 -0.45825 0 -0.17193750000000002 -0.06826874999999999 -0.33675 -0.1897875 -0.45825 -0.1215375 -0.1215 -0.28636875 -0.18975 -0.45823125 -0.18975 -0.1718625 0 -0.33671249999999997 0.06825 -0.45823125 0.18975s-0.18980625 0.2863125 -0.18980625 0.45825c0 0.17175 0.0682875 0.33675 0.18980625 0.45825s0.28636875 0.18975 0.45823125 0.18975Z"></path><path fill="#afdad2" stroke="#ffffff" stroke-width="0.4688" d="M13.28146875 79.2305625c0.20709375000000002 0 0.4057125 -0.0823125 0.55215 -0.22875 0.1464375 -0.1464375 0.2287125 -0.34518750000000004 0.2287125 -0.5521874999999999 0 -0.207 -0.082275 -0.40575 -0.2287125 -0.5521874999999999 -0.1464375 -0.1464375 -0.34505625 -0.22875 -0.55215 -0.22875 -0.20709375000000002 0 -0.4057125 0.0823125 -0.55215 0.22875 -0.1464375 0.1464375 -0.2287125 0.34518750000000004 -0.2287125 0.5521874999999999 0 0.207 0.082275 0.40575 0.2287125 0.5521874999999999 0.1464375 0.1464375 0.34505625 0.22875 0.55215 0.22875Z"></path><path fill="#afdad2" stroke="#ffffff" stroke-width="0.4688" d="M15.386925 80.692125c0.16014375 0 0.3137625 -0.06375 0.4270125 -0.177 0.11325 -0.11325 0.17686875 -0.2668125 0.17686875 -0.4269375s-0.06361875 -0.313875 -0.17686875 -0.427125c-0.11325 -0.11325 -0.26686875000000004 -0.17681249999999998 -0.4270125 -0.17681249999999998 -0.16016249999999999 0 -0.31378125 0.0635625 -0.42703125000000003 0.17681249999999998 -0.11325 0.11325 -0.17686875 0.267 -0.17686875 0.427125s0.06361875 0.3136875 0.17686875 0.4269375c0.11325 0.11325 0.26686875000000004 0.177 0.42703125000000003 0.177Z"></path><path fill="#afdad2" stroke="#ffffff" stroke-width="0.4688" d="M25.80075 78.8889375c0.1873125 0 0.3669375 -0.0744375 0.49931249999999994 -0.207 0.1325625 -0.132375 0.20681249999999998 -0.312 0.20681249999999998 -0.49931249999999994 0 -0.1873125 -0.07425000000000001 -0.3669375 -0.20681249999999998 -0.49931249999999994 -0.132375 -0.132375 -0.312 -0.20681249999999998 -0.49931249999999994 -0.20681249999999998 -0.1873125 0 -0.3669375 0.0744375 -0.49931249999999994 0.20681249999999998 -0.132375 0.132375 -0.20681249999999998 0.312 -0.20681249999999998 0.49931249999999994 0 0.1873125 0.0744375 0.3669375 0.20681249999999998 0.49931249999999994 0.132375 0.1325625 0.312 0.207 0.49931249999999994 0.207Z"></path><path fill="#afdad2" stroke="#ffffff" stroke-width="0.4688" d="M10.98958125 82.632c0.11353125 0 0.2224125 -0.0451875 0.3027 -0.1254375 0.08026875 -0.08025 0.12536250000000002 -0.1891875 0.12536250000000002 -0.302625 0 -0.113625 -0.045093749999999995 -0.2225625 -0.12536250000000002 -0.3028125 -0.0802875 -0.08025 -0.18916875 -0.12525 -0.3027 -0.12525 -0.11351249999999999 0 -0.2224125 0.045 -0.30268124999999996 0.12525 -0.08026875 0.08025 -0.12538125 0.1891875 -0.12538125 0.3028125 0 0.1134375 0.0451125 0.222375 0.12538125 0.302625 0.08026875 0.08025 0.18916875 0.1254375 0.30268124999999996 0.1254375Z"></path><path fill="#afdad2" stroke="#ffffff" stroke-width="0.4688" d="M12.41161875 82.23037500000001c0.13470000000000001 0 0.26390624999999995 -0.0534375 0.35915625 -0.1486875 0.09526875 -0.09525 0.14878125 -0.2244375 0.14878125 -0.3590625 0 -0.1348125 -0.0535125 -0.264 -0.14878125 -0.35924999999999996 -0.09525 -0.09525 -0.22445625 -0.1486875 -0.35915625 -0.1486875s-0.26390624999999995 0.0534375 -0.35915625 0.1486875c-0.09525 0.09525 -0.14878125 0.2244375 -0.14878125 0.35924999999999996 0 0.134625 0.053531249999999996 0.2638125 0.14878125 0.3590625 0.09525 0.09525 0.22445625 0.1486875 0.35915625 0.1486875Z"></path><path fill="#afdad2" stroke="#ffffff" stroke-width="0.4688" d="M9.81950625 80.6214375c0.178575 0 0.349875 -0.0710625 0.47615625 -0.19725 0.12628124999999998 -0.12637500000000002 0.19723125000000002 -0.2975625 0.19723125000000002 -0.47625 0 -0.17850000000000002 -0.07095 -0.349875 -0.19723125000000002 -0.47606250000000006 -0.12628124999999998 -0.12637500000000002 -0.29758124999999996 -0.19725 -0.47615625 -0.19725 -0.17859375 0 -0.349875 0.070875 -0.47615625 0.19725 -0.12628124999999998 0.1261875 -0.19723125000000002 0.2975625 -0.19723125000000002 0.47606250000000006 0 0.1786875 0.07095 0.349875 0.19723125000000002 0.47625 0.12628124999999998 0.1261875 0.2975625 0.19725 0.47615625 0.19725Z"></path><path fill="#afdad2" stroke="#ffffff" stroke-width="0.4688" d="M12.4680375 80.32275c0.09309375 0 0.18238125 -0.0369375 0.2482125 -0.10275000000000001 0.06583125000000001 -0.066 0.10280624999999999 -0.15525 0.10280624999999999 -0.24824999999999997 0 -0.0931875 -0.036975 -0.1824375 -0.10280624999999999 -0.24824999999999997 -0.06583125000000001 -0.0658125 -0.15511875 -0.10275000000000001 -0.2482125 -0.10275000000000001s-0.1824 0.0369375 -0.2482125 0.10275000000000001c-0.06583125000000001 0.0658125 -0.102825 0.1550625 -0.102825 0.24824999999999997 0 0.093 0.03699375 0.18225 0.102825 0.24824999999999997 0.0658125 0.0658125 0.15511875 0.10275000000000001 0.2482125 0.10275000000000001Z"></path><path fill="#afdad2" stroke="#ffffff" stroke-width="0.4688" d="M17.168699999999998 79.776c0.17379375 0 0.34048125 -0.0691875 0.4633875 -0.192 0.1228875 -0.12300000000000001 0.191925 -0.2896875 0.191925 -0.46331249999999996 0 -0.1738125 -0.0690375 -0.3405 -0.191925 -0.4635 -0.12290625 -0.1228125 -0.28959375 -0.192 -0.4633875 -0.192s-0.3405 0.0691875 -0.4633875 0.192c-0.1228875 0.12300000000000001 -0.19194375 0.2896875 -0.19194375 0.4635 0 0.173625 0.06905625 0.3403125 0.19194375 0.46331249999999996 0.1228875 0.1228125 0.28959375 0.192 0.4633875 0.192Z"></path><path fill="#afdad2" stroke="#ffffff" stroke-width="0.4688" d="M22.147312499999998 80.1549375c0.15 0 0.29381250000000003 -0.059625000000000004 0.3999375 -0.16575 0.1059375 -0.106125 0.1655625 -0.2499375 0.1655625 -0.3999375 0 -0.15 -0.059625000000000004 -0.29381250000000003 -0.1655625 -0.3999375 -0.106125 -0.1059375 -0.2499375 -0.1655625 -0.3999375 -0.1655625 -0.15 0 -0.29381250000000003 0.059625000000000004 -0.3999375 0.1655625 -0.106125 0.106125 -0.1655625 0.2499375 -0.1655625 0.3999375 0 0.15 0.0594375 0.29381250000000003 0.1655625 0.3999375 0.106125 0.106125 0.2499375 0.16575 0.3999375 0.16575Z"></path><path fill="#afdad2" stroke="#ffffff" stroke-width="0.4688" d="M23.1823125 76.6275c0.09825 0 0.192375 -0.039 0.26175 -0.1085625 0.06937499999999999 -0.06937499999999999 0.108375 -0.1635 0.108375 -0.26156250000000003 0 -0.09825 -0.039 -0.192375 -0.108375 -0.26175 -0.06937499999999999 -0.0695625 -0.1635 -0.1085625 -0.26175 -0.1085625 -0.0980625 0 -0.192375 0.039 -0.26175 0.1085625 -0.06937499999999999 0.06937499999999999 -0.108375 0.1635 -0.108375 0.26175 0 0.0980625 0.039 0.19218749999999998 0.108375 0.26156250000000003 0.06937499999999999 0.0695625 0.1636875 0.1085625 0.26175 0.1085625Z"></path><path fill="#afdad2" stroke="#ffffff" stroke-width="0.4688" d="M24.3864375 78.7584375c0.1640625 0 0.32137499999999997 -0.06525 0.43743750000000003 -0.1813125 0.1160625 -0.115875 0.181125 -0.27318749999999997 0.181125 -0.43724999999999997s-0.06506250000000001 -0.32137499999999997 -0.181125 -0.43743750000000003c-0.1160625 -0.115875 -0.27337500000000003 -0.181125 -0.43743750000000003 -0.181125 -0.16387500000000002 0 -0.32137499999999997 0.06525 -0.43724999999999997 0.181125 -0.1160625 0.1160625 -0.181125 0.27337500000000003 -0.181125 0.43743750000000003s0.06506250000000001 0.32137499999999997 0.181125 0.43724999999999997c0.115875 0.1160625 0.27337500000000003 0.1813125 0.43724999999999997 0.1813125Z"></path><path fill="#afdad2" stroke="#ffffff" stroke-width="0.4688" d="M18.20724375 78.396c0.16856249999999998 0 0.330225 -0.06693750000000001 0.4494 -0.1861875 0.11923124999999998 -0.1190625 0.18616875 -0.280875 0.18616875 -0.44925000000000004 0 -0.16856249999999998 -0.06693750000000001 -0.330375 -0.18616875 -0.4494375 -0.119175 -0.11925000000000001 -0.2808375 -0.1861875 -0.4494 -0.1861875 -0.16854375 0 -0.33020625 0.06693750000000001 -0.44938125 0.1861875 -0.119175 0.1190625 -0.18614999999999998 0.280875 -0.18614999999999998 0.4494375 0 0.168375 0.066975 0.3301875 0.18614999999999998 0.44925000000000004 0.119175 0.11925000000000001 0.2808375 0.1861875 0.44938125 0.1861875Z"></path><path fill="#afdad2" stroke="#ffffff" stroke-width="0.4688" d="M10.2459375 84.5055c0.13678125 0 0.26797499999999996 -0.0541875 0.36466875 -0.1509375 0.0967125 -0.09675 0.15106875 -0.228 0.15106875 -0.3646875 0 -0.136875 -0.054356249999999995 -0.2679375 -0.15106875 -0.3646875 -0.09669375 -0.09675 -0.2278875 -0.151125 -0.36466875 -0.151125 -0.1367625 0 -0.26795625 0.054375 -0.36466875 0.151125 -0.0967125 0.09675 -0.15105000000000002 0.2278125 -0.15105000000000002 0.3646875 0 0.13668750000000002 0.0543375 0.2679375 0.15105000000000002 0.3646875 0.0967125 0.09675 0.22790625 0.1509375 0.36466875 0.1509375Z"></path><path fill="#afdad2" stroke="#ffffff" stroke-width="0.4688" d="M27.231375 79.02543750000001c0.2083125 0 0.408 -0.082875 0.5553750000000001 -0.2300625 0.147375 -0.147375 0.2300625 -0.3470625 0.2300625 -0.5553750000000001 0 -0.2083125 -0.0826875 -0.40818750000000004 -0.2300625 -0.5553750000000001 -0.147375 -0.147375 -0.3470625 -0.2300625 -0.5553750000000001 -0.2300625 -0.2083125 0 -0.40818750000000004 0.0826875 -0.5553750000000001 0.2300625 -0.147375 0.1471875 -0.2300625 0.3470625 -0.2300625 0.5553750000000001 0 0.2083125 0.0826875 0.408 0.2300625 0.5553750000000001 0.1471875 0.1471875 0.3470625 0.2300625 0.5553750000000001 0.2300625Z"></path><path fill="#afdad2" stroke="#ffffff" stroke-width="0.4688" d="M19.6531875 78.4918125c0.1910625 0 0.3744375 -0.0759375 0.5098125 -0.2113125 0.1351875 -0.1351875 0.211125 -0.31856249999999997 0.211125 -0.509625 0 -0.19124999999999998 -0.0759375 -0.374625 -0.211125 -0.5098125 -0.135375 -0.1351875 -0.31875000000000003 -0.211125 -0.5098125 -0.211125 -0.19124999999999998 0 -0.374625 0.0759375 -0.5098125 0.211125 -0.1351875 0.1351875 -0.211125 0.31856249999999997 -0.211125 0.5098125 0 0.1910625 0.0759375 0.3744375 0.211125 0.509625 0.1351875 0.135375 0.31856249999999997 0.2113125 0.5098125 0.2113125Z"></path><path fill="#afdad2" stroke="#ffffff" stroke-width="0.4688" d="M11.277525 79.07325c0.1772625 0 0.34728749999999997 -0.0703125 0.47263125000000006 -0.19575 0.12534375 -0.12525 0.19576875 -0.2953125 0.19576875 -0.47250000000000003 0 -0.177375 -0.070425 -0.3474375 -0.19576875 -0.4726875 -0.12534375 -0.1254375 -0.29536875 -0.19575 -0.47263125000000006 -0.19575 -0.1772625 0 -0.34728749999999997 0.0703125 -0.47263125000000006 0.19575 -0.12534375 0.12525 -0.19576875 0.2953125 -0.19576875 0.4726875 0 0.1771875 0.070425 0.34725 0.19576875 0.47250000000000003 0.12534375 0.1254375 0.29536875 0.19575 0.47263125000000006 0.19575Z"></path><path fill="#afdad2" stroke="#ffffff" stroke-width="0.4688" d="M14.997300000000001 77.34843749999999c0.20491874999999998 0 0.40149375 -0.081375 0.5464125 -0.2263125 0.1449 -0.1449375 0.22633124999999998 -0.3414375 0.22633124999999998 -0.5463749999999999 0 -0.2049375 -0.08143125000000001 -0.401625 -0.22633124999999998 -0.5465625 -0.14491874999999999 -0.1449375 -0.34149375 -0.2263125 -0.5464125 -0.2263125 -0.2049375 0 -0.4015125 0.081375 -0.5464125 0.2263125 -0.14491874999999999 0.1449375 -0.22633124999999998 0.341625 -0.22633124999999998 0.5465625 0 0.2049375 0.0814125 0.4014375 0.22633124999999998 0.5463749999999999 0.1449 0.1449375 0.34147500000000003 0.2263125 0.5464125 0.2263125Z"></path><path fill="#afdad2" stroke="#ffffff" stroke-width="0.4688" d="M29.494875 78.388125c0.12656250000000002 0 0.2480625 -0.05025 0.33749999999999997 -0.139875 0.08962500000000001 -0.0894375 0.139875 -0.2109375 0.139875 -0.33749999999999997 0 -0.12656250000000002 -0.05025 -0.2480625 -0.139875 -0.33749999999999997 -0.0894375 -0.0894375 -0.2109375 -0.1396875 -0.33749999999999997 -0.1396875 -0.12656250000000002 0 -0.247875 0.05025 -0.33749999999999997 0.1396875 -0.0894375 0.0894375 -0.1396875 0.2109375 -0.1396875 0.33749999999999997 0 0.12656250000000002 0.05025 0.2480625 0.1396875 0.33749999999999997 0.08962500000000001 0.08962500000000001 0.2109375 0.139875 0.33749999999999997 0.139875Z"></path><path fill="#afdad2" stroke="#ffffff" stroke-width="0.4688" d="M12.8679375 76.439625c0.161025 0 0.31546875 -0.0639375 0.4293375 -0.1779375 0.11386875 -0.1138125 0.17784375 -0.2683125 0.17784375 -0.4291875 0 -0.1610625 -0.06397499999999999 -0.3155625 -0.17784375 -0.429375 -0.11386875 -0.114 -0.2683125 -0.1779375 -0.4293375 -0.1779375 -0.161025 0 -0.3154875 0.0639375 -0.42935625 0.1779375 -0.11386875 0.1138125 -0.17784375 0.2683125 -0.17784375 0.429375 0 0.160875 0.06397499999999999 0.31537499999999996 0.17784375 0.4291875 0.11386875 0.114 0.26833124999999997 0.1779375 0.42935625 0.1779375Z"></path><path fill="#afdad2" stroke="#ffffff" stroke-width="0.4688" d="M15.605587499999999 79.159125c0.13704375 0 0.26849999999999996 -0.054375 0.36541875 -0.1513125 0.0969 -0.09693750000000001 0.15135 -0.22837500000000002 0.15135 -0.36543749999999997 0 -0.1370625 -0.05445 -0.26849999999999996 -0.15135 -0.36543749999999997 -0.09691875 -0.09693750000000001 -0.22837500000000002 -0.1513125 -0.36541875 -0.1513125 -0.1370625 0 -0.26851875000000003 0.054375 -0.36541875 0.1513125 -0.09691875 0.09693750000000001 -0.15136875 0.22837500000000002 -0.15136875 0.36543749999999997 0 0.1370625 0.05445 0.26849999999999996 0.15136875 0.36543749999999997 0.0969 0.09693750000000001 0.22835624999999998 0.1513125 0.36541875 0.1513125Z"></path><path fill="#afdad2" stroke="#ffffff" stroke-width="0.4688" d="M16.843387500000002 78.03675c0.13923750000000001 0 0.27279375 -0.0553125 0.37125 -0.15375 0.09845625 -0.0984375 0.15376875 -0.232125 0.15376875 -0.37125 0 -0.1393125 -0.0553125 -0.27281249999999996 -0.15376875 -0.37125 -0.09845625 -0.0984375 -0.2320125 -0.15375 -0.37125 -0.15375s-0.27279375 0.0553125 -0.37125 0.15375c-0.09845625 0.0984375 -0.1537875 0.23193750000000002 -0.1537875 0.37125 0 0.139125 0.055331250000000005 0.27281249999999996 0.1537875 0.37125 0.09845625 0.0984375 0.2320125 0.15375 0.37125 0.15375Z"></path><path fill="#afdad2" stroke="#ffffff" stroke-width="0.4688" d="M8.735362499999999 79.371375c0.140175 0 0.27463125 -0.0556875 0.3737625 -0.154875 0.09913125 -0.099 0.15481875 -0.233625 0.15481875 -0.3736875 0 -0.14025 -0.0556875 -0.2746875 -0.15481875 -0.373875 -0.09913125 -0.099 -0.2335875 -0.1546875 -0.3737625 -0.1546875s-0.27463125 0.0556875 -0.3737625 0.1546875c-0.09911249999999999 0.09918750000000001 -0.15481875 0.233625 -0.15481875 0.373875 0 0.1400625 0.05570625 0.2746875 0.15481875 0.3736875 0.09913125 0.09918750000000001 0.2335875 0.154875 0.3737625 0.154875Z"></path><path fill="#afdad2" stroke="#ffffff" stroke-width="0.4688" d="M10.191337500000001 77.3165625c0.12860625 0 0.2519625 -0.051 0.3429 -0.1419375 0.0909375 -0.0909375 0.14203125 -0.2143125 0.14203125 -0.3429375 0 -0.128625 -0.05109375 -0.252 -0.14203125 -0.3429375 -0.0909375 -0.0909375 -0.21429375 -0.1419375 -0.3429 -0.1419375 -0.1285875 0 -0.25194374999999997 0.051 -0.34288125 0.1419375 -0.0909375 0.0909375 -0.14203125 0.2143125 -0.14203125 0.3429375 0 0.128625 0.05109375 0.252 0.14203125 0.3429375 0.0909375 0.0909375 0.21429375 0.1419375 0.34288125 0.1419375Z"></path><path fill="#afdad2" stroke="#ffffff" stroke-width="0.4688" d="M21.378375 78.8203125c0.1078125 0 0.2113125 -0.04275 0.2874375 -0.1190625 0.0763125 -0.076125 0.1190625 -0.1794375 0.1190625 -0.28725 0 -0.1078125 -0.04275 -0.2113125 -0.1190625 -0.2874375 -0.076125 -0.0763125 -0.17962499999999998 -0.1190625 -0.2874375 -0.1190625 -0.1078125 0 -0.211125 0.04275 -0.2874375 0.1190625 -0.076125 0.076125 -0.118875 0.17962499999999998 -0.118875 0.2874375 0 0.1078125 0.04275 0.211125 0.118875 0.28725 0.0763125 0.0763125 0.17962499999999998 0.1190625 0.2874375 0.1190625Z"></path><path fill="#afdad2" stroke="#ffffff" stroke-width="0.4688" d="M8.3621625 82.04718749999999c0.1781625 0 0.34903125 -0.0706875 0.47499375 -0.1966875 0.12598125 -0.126 0.19674375 -0.2968125 0.19674375 -0.47493750000000007 0 -0.1783125 -0.0707625 -0.349125 -0.19674375 -0.475125 -0.1259625 -0.126 -0.29683125 -0.1966875 -0.47499375 -0.1966875 -0.17814375 0 -0.3490125 0.0706875 -0.47499375 0.1966875 -0.1259625 0.126 -0.19674375 0.2968125 -0.19674375 0.475125 0 0.178125 0.07078125 0.34893749999999996 0.19674375 0.47493750000000007 0.12598125 0.126 0.29685 0.1966875 0.47499375 0.1966875Z"></path><path fill="#afdad2" stroke="#ffffff" stroke-width="0.4688" d="M6.862406249999999 80.9135625c0.13393125 0 0.2623875 -0.053250000000000006 0.35709375 -0.1479375 0.09468750000000001 -0.09468750000000001 0.1479 -0.223125 0.1479 -0.35700000000000004 0 -0.1340625 -0.053212499999999996 -0.2625 -0.1479 -0.3571875 -0.09470624999999999 -0.09468750000000001 -0.2231625 -0.1479375 -0.35709375 -0.1479375 -0.1339125 0 -0.26236875 0.053250000000000006 -0.357075 0.1479375 -0.09470624999999999 0.09468750000000001 -0.14791875000000002 0.223125 -0.14791875000000002 0.3571875 0 0.13387500000000002 0.053212499999999996 0.2623125 0.14791875000000002 0.35700000000000004 0.09470624999999999 0.09468750000000001 0.2231625 0.1479375 0.357075 0.1479375Z"></path><path fill="#afdad2" stroke="#ffffff" stroke-width="0.4688" d="M22.764375 78.70293749999999c0.1348125 0 0.264 -0.0534375 0.35924999999999996 -0.1486875 0.09525 -0.09525 0.1486875 -0.2244375 0.1486875 -0.35924999999999996 0 -0.134625 -0.0534375 -0.2638125 -0.1486875 -0.3590625 -0.09525 -0.09525 -0.2244375 -0.148875 -0.35924999999999996 -0.148875 -0.134625 0 -0.2638125 0.053625 -0.3590625 0.148875 -0.09525 0.09525 -0.148875 0.2244375 -0.148875 0.3590625 0 0.1348125 0.053625 0.264 0.148875 0.35924999999999996 0.09525 0.09525 0.2244375 0.1486875 0.3590625 0.1486875Z"></path><path fill="#afdad2" stroke="#ffffff" stroke-width="0.4688" d="M11.21735625 81.3406875c0.20769374999999998 0 0.40689375 -0.08249999999999999 0.55374375 -0.2293125 0.14685 -0.147 0.22936874999999998 -0.34612499999999996 0.22936874999999998 -0.553875 0 -0.2075625 -0.08251875 -0.406875 -0.22936874999999998 -0.5536875 -0.14685 -0.14681249999999998 -0.34605 -0.2293125 -0.55374375 -0.2293125 -0.207675 0 -0.406875 0.08249999999999999 -0.553725 0.2293125 -0.14685 0.14681249999999998 -0.22936874999999998 0.34612499999999996 -0.22936874999999998 0.5536875 0 0.20775 0.08251875 0.406875 0.22936874999999998 0.553875 0.14685 0.14681249999999998 0.34605 0.2293125 0.553725 0.2293125Z"></path><path fill="#afdad2" stroke="#ffffff" stroke-width="0.4688" d="M28.467 77.7795c0.208125 0 0.4078125 -0.0826875 0.5549999999999999 -0.229875 0.1471875 -0.1471875 0.2300625 -0.3470625 0.2300625 -0.5551875 0 -0.208125 -0.082875 -0.4078125 -0.2300625 -0.5549999999999999 -0.1471875 -0.147375 -0.346875 -0.2300625 -0.5549999999999999 -0.2300625 -0.2083125 0 -0.408 0.0826875 -0.5551875 0.2300625 -0.1471875 0.1471875 -0.229875 0.346875 -0.229875 0.5549999999999999 0 0.208125 0.0826875 0.408 0.229875 0.5551875 0.1471875 0.1471875 0.346875 0.229875 0.5551875 0.229875Z"></path><path fill="#afdad2" stroke="#ffffff" stroke-width="0.4688" d="M8.778693749999999 85.1773125c0.12084374999999999 0 0.23673750000000002 -0.048 0.32218125000000003 -0.1335 0.08544375 -0.0853125 0.13346249999999998 -0.201375 0.13346249999999998 -0.322125 0 -0.12075 -0.04801875 -0.23681249999999998 -0.13346249999999998 -0.322125 -0.08544375 -0.0855 -0.2013375 -0.1335 -0.32218125000000003 -0.1335 -0.12082499999999999 0 -0.23673750000000002 0.048 -0.32218125000000003 0.1335 -0.08544375 0.0853125 -0.13346249999999998 0.201375 -0.13346249999999998 0.322125 0 0.12075 0.04801875 0.23681249999999998 0.13346249999999998 0.322125 0.08544375 0.0855 0.20135625 0.1335 0.32218125000000003 0.1335Z"></path><path fill="#afdad2" stroke="#ffffff" stroke-width="0.4688" d="M20.1620625 76.289625c0.166125 0 0.3255 -0.0661875 0.44287499999999996 -0.1835625 0.11756250000000001 -0.11756250000000001 0.1835625 -0.2769375 0.1835625 -0.4430625 0 -0.166125 -0.066 -0.3255 -0.1835625 -0.44287499999999996 -0.11737500000000001 -0.11756250000000001 -0.27675 -0.1835625 -0.44287499999999996 -0.1835625 -0.1663125 0 -0.3255 0.066 -0.4430625 0.1835625 -0.11756250000000001 0.11737500000000001 -0.1835625 0.27675 -0.1835625 0.44287499999999996 0 0.166125 0.066 0.3255 0.1835625 0.4430625 0.11756250000000001 0.11737500000000001 0.27675 0.1835625 0.4430625 0.1835625Z"></path><path fill="#afdad2" stroke="#ffffff" stroke-width="0.4688" d="M33.17775 77.1523125c0.1696875 0 0.33243750000000005 -0.0673125 0.452625 -0.1873125 0.12 -0.12 0.1873125 -0.2829375 0.1873125 -0.452625s-0.0673125 -0.33243750000000005 -0.1873125 -0.4524375c-0.1201875 -0.12 -0.2829375 -0.1875 -0.452625 -0.1875s-0.33243750000000005 0.06749999999999999 -0.4524375 0.1875c-0.12 0.12 -0.1875 0.28275 -0.1875 0.4524375s0.06749999999999999 0.332625 0.1875 0.452625 0.28275 0.1873125 0.4524375 0.1873125Z"></path><path fill="#afdad2" stroke="#ffffff" stroke-width="0.4688" d="M24.6639375 76.826625c0.1351875 0 0.26475 -0.0538125 0.3601875 -0.14925 0.09562499999999999 -0.09562499999999999 0.14925 -0.22518749999999998 0.14925 -0.360375 0 -0.13499999999999998 -0.053625 -0.26475 -0.14925 -0.3601875 -0.09543750000000001 -0.09562499999999999 -0.22499999999999998 -0.14925 -0.3601875 -0.14925s-0.26475 0.053625 -0.360375 0.14925c-0.09543750000000001 0.09543750000000001 -0.14925 0.22518749999999998 -0.14925 0.3601875 0 0.1351875 0.0538125 0.26475 0.14925 0.360375 0.09562499999999999 0.09543750000000001 0.22518749999999998 0.14925 0.360375 0.14925Z"></path><path fill="#afdad2" stroke="#ffffff" stroke-width="0.4688" d="M13.5540375 83.5475625c0.17619374999999998 0 0.34518750000000004 -0.0699375 0.46976249999999997 -0.194625 0.12457499999999999 -0.1245 0.19456875 -0.2934375 0.19456875 -0.4696875s-0.06999375000000001 -0.34518750000000004 -0.19456875 -0.4696875c-0.12457499999999999 -0.1246875 -0.29356875 -0.194625 -0.46976249999999997 -0.194625 -0.176175 0 -0.34516875 0.0699375 -0.46974374999999996 0.194625 -0.12459374999999999 0.1245 -0.1945875 0.2934375 -0.1945875 0.4696875s0.06999375000000001 0.34518750000000004 0.1945875 0.4696875c0.12457499999999999 0.1246875 0.29356875 0.194625 0.46974374999999996 0.194625Z"></path><path fill="#afdad2" stroke="#ffffff" stroke-width="0.4688" d="M26.392500000000002 77.044875c0.16874999999999998 0 0.33056250000000004 -0.06712499999999999 0.4498125 -0.186375 0.11925000000000001 -0.11925000000000001 0.186375 -0.2810625 0.186375 -0.4498125 0 -0.16856249999999998 -0.06712499999999999 -0.330375 -0.186375 -0.44962500000000005 -0.11925000000000001 -0.11925000000000001 -0.2810625 -0.186375 -0.4498125 -0.186375 -0.16856249999999998 0 -0.330375 0.06712499999999999 -0.44962500000000005 0.186375 -0.11925000000000001 0.11925000000000001 -0.186375 0.2810625 -0.186375 0.44962500000000005 0 0.16874999999999998 0.06712499999999999 0.33056250000000004 0.186375 0.4498125 0.11925000000000001 0.11925000000000001 0.2810625 0.186375 0.44962500000000005 0.186375Z"></path><path fill="#afdad2" stroke="#ffffff" stroke-width="0.4688" d="M30.896062500000003 77.6645625c0.139875 0 0.2739375 -0.0555 0.37275 -0.1543125s0.1543125 -0.232875 0.1543125 -0.37275c0 -0.1396875 -0.0555 -0.2739375 -0.1543125 -0.37275s-0.232875 -0.1543125 -0.37275 -0.1543125 -0.2739375 0.0555 -0.37275 0.1543125 -0.1543125 0.23306249999999998 -0.1543125 0.37275c0 0.139875 0.0555 0.2739375 0.1543125 0.37275s0.232875 0.1543125 0.37275 0.1543125Z"></path><path fill="#afdad2" stroke="#ffffff" stroke-width="0.4688" d="M35.872125 78.8075625c0.126 0 0.24693750000000003 -0.0500625 0.336 -0.139125 0.0890625 -0.0890625 0.139125 -0.21 0.139125 -0.336s-0.0500625 -0.24675 -0.139125 -0.336c-0.0890625 -0.0890625 -0.21 -0.139125 -0.336 -0.139125s-0.24675 0.0500625 -0.336 0.139125c-0.0890625 0.08925000000000001 -0.139125 0.21 -0.139125 0.336s0.0500625 0.24693750000000003 0.139125 0.336c0.08925000000000001 0.0890625 0.21 0.139125 0.336 0.139125Z"></path><path fill="#afdad2" stroke="#ffffff" stroke-width="0.4688" d="M18.091987500000002 75.31631250000001c0.10858125 0 0.21275625 -0.043125 0.2895375 -0.1198125 0.07680000000000001 -0.076875 0.11994375 -0.181125 0.11994375 -0.2896875 0 -0.1085625 -0.04314375 -0.212625 -0.11994375 -0.28950000000000004 -0.07678125 -0.076875 -0.18095624999999999 -0.12 -0.2895375 -0.12 -0.1086 0 -0.212775 0.043125 -0.28955625 0.12 -0.07678125 0.076875 -0.11994375 0.1809375 -0.11994375 0.28950000000000004 0 0.1085625 0.0431625 0.21281250000000002 0.11994375 0.2896875 0.07678125 0.07668749999999999 0.18095624999999999 0.1198125 0.28955625 0.1198125Z"></path><path fill="#afdad2" stroke="#ffffff" stroke-width="0.4688" d="M21.8150625 74.191125c0.159 0 0.3114375 -0.063 0.42375 -0.17550000000000002 0.11249999999999999 -0.11249999999999999 0.1756875 -0.2649375 0.1756875 -0.42393749999999997 0 -0.159 -0.06318750000000001 -0.3114375 -0.1756875 -0.42393749999999997 -0.11231250000000001 -0.11231250000000001 -0.26475 -0.17550000000000002 -0.42375 -0.17550000000000002 -0.159 0 -0.311625 0.06318750000000001 -0.42393749999999997 0.17550000000000002 -0.11249999999999999 0.11249999999999999 -0.1756875 0.2649375 -0.1756875 0.42393749999999997 0 0.159 0.06318750000000001 0.3114375 0.1756875 0.42393749999999997 0.11231250000000001 0.11249999999999999 0.2649375 0.17550000000000002 0.42393749999999997 0.17550000000000002Z"></path><path fill="#afdad2" stroke="#ffffff" stroke-width="0.4688" d="M35.764875 77.4073125c0.2094375 0 0.41025 -0.08325 0.5583750000000001 -0.231375 0.148125 -0.148125 0.231375 -0.34893749999999996 0.231375 -0.5585625 0 -0.2094375 -0.08325 -0.41025 -0.231375 -0.5583750000000001 -0.148125 -0.148125 -0.34893749999999996 -0.231375 -0.5583750000000001 -0.231375 -0.209625 0 -0.4104375 0.08325 -0.5585625 0.231375 -0.148125 0.148125 -0.231375 0.34893749999999996 -0.231375 0.5583750000000001 0 0.209625 0.08325 0.4104375 0.231375 0.5585625 0.148125 0.148125 0.34893749999999996 0.231375 0.5585625 0.231375Z"></path><path fill="#afdad2" stroke="#ffffff" stroke-width="0.4688" d="M20.9109375 77.72962500000001c0.1978125 0 0.38775000000000004 -0.0785625 0.527625 -0.21862499999999999 0.1400625 -0.139875 0.21862499999999999 -0.3298125 0.21862499999999999 -0.5278124999999999 0 -0.1978125 -0.0785625 -0.38775000000000004 -0.21862499999999999 -0.527625 -0.139875 -0.1400625 -0.3298125 -0.21862499999999999 -0.527625 -0.21862499999999999 -0.198 0 -0.3879375 0.0785625 -0.5278124999999999 0.21862499999999999 -0.1400625 0.139875 -0.21862499999999999 0.3298125 -0.21862499999999999 0.527625 0 0.198 0.0785625 0.3879375 0.21862499999999999 0.5278124999999999 0.139875 0.1400625 0.3298125 0.21862499999999999 0.5278124999999999 0.21862499999999999Z"></path><path fill="#afdad2" stroke="#ffffff" stroke-width="0.4688" d="M23.671125 74.931c0.197625 0 0.387 -0.0785625 0.5265 -0.21825 0.1396875 -0.13949999999999999 0.21825 -0.32887500000000003 0.21825 -0.5263125 0 -0.197625 -0.0785625 -0.387 -0.21825 -0.5265 -0.13949999999999999 -0.1396875 -0.32887500000000003 -0.21825 -0.5265 -0.21825 -0.19743750000000002 0 -0.3868125 0.0785625 -0.5265 0.21825 -0.13949999999999999 0.13949999999999999 -0.2180625 0.32887500000000003 -0.2180625 0.5265 0 0.19743750000000002 0.0785625 0.3868125 0.2180625 0.5263125 0.1396875 0.1396875 0.3290625 0.21825 0.5265 0.21825Z"></path><path fill="#afdad2" stroke="#ffffff" stroke-width="0.4688" d="M30.1276875 75.83775c0.2045625 0 0.400875 -0.081375 0.5454375 -0.22593749999999999 0.1445625 -0.14475000000000002 0.22593749999999999 -0.340875 0.22593749999999999 -0.5454375s-0.081375 -0.4006875 -0.22593749999999999 -0.5454375c-0.1445625 -0.1445625 -0.340875 -0.22593749999999999 -0.5454375 -0.22593749999999999s-0.4006875 0.081375 -0.5454375 0.22593749999999999c-0.1445625 0.14475000000000002 -0.22593749999999999 0.340875 -0.22593749999999999 0.5454375s0.081375 0.4006875 0.22593749999999999 0.5454375c0.14475000000000002 0.1445625 0.340875 0.22593749999999999 0.5454375 0.22593749999999999Z"></path><path fill="#afdad2" stroke="#ffffff" stroke-width="0.4688" d="M38.113125000000004 80.687625c0.1936875 0 0.3793125 -0.07706249999999999 0.5163749999999999 -0.21393749999999997 0.136875 -0.1370625 0.21393749999999997 -0.3226875 0.21393749999999997 -0.5163749999999999 0 -0.1936875 -0.07706249999999999 -0.3795 -0.21393749999999997 -0.5163749999999999 -0.1370625 -0.1370625 -0.3226875 -0.21393749999999997 -0.5163749999999999 -0.21393749999999997 -0.1936875 0 -0.3795 0.076875 -0.5163749999999999 0.21393749999999997 -0.1370625 0.136875 -0.21393749999999997 0.3226875 -0.21393749999999997 0.5163749999999999 0 0.1936875 0.076875 0.3793125 0.21393749999999997 0.5163749999999999 0.136875 0.136875 0.3226875 0.21393749999999997 0.5163749999999999 0.21393749999999997Z"></path><path fill="#afdad2" stroke="#ffffff" stroke-width="0.4688" d="M21.6470625 71.8468125c0.110625 0 0.21675 -0.0440625 0.29493749999999996 -0.12224999999999998 0.07818750000000001 -0.07818750000000001 0.1220625 -0.18412499999999998 0.1220625 -0.29475 0 -0.110625 -0.043875000000000004 -0.21656250000000002 -0.1220625 -0.29475s-0.1843125 -0.12224999999999998 -0.29493749999999996 -0.12224999999999998c-0.11043750000000001 0 -0.21656250000000002 0.0440625 -0.29475 0.12224999999999998 -0.07818750000000001 0.07818750000000001 -0.1220625 0.18412499999999998 -0.1220625 0.29475 0 0.110625 0.043875000000000004 0.21656250000000002 0.1220625 0.29475s0.1843125 0.12224999999999998 0.29475 0.12224999999999998Z"></path><path fill="#afdad2" stroke="#ffffff" stroke-width="0.4688" d="M28.3051875 76.27312500000001c0.185625 0 0.36375 -0.073875 0.495 -0.205125s0.205125 -0.309375 0.205125 -0.4951875c0 -0.185625 -0.073875 -0.36375 -0.205125 -0.495s-0.309375 -0.205125 -0.495 -0.205125c-0.1858125 0 -0.36393749999999997 0.073875 -0.4951875 0.205125s-0.2049375 0.309375 -0.2049375 0.495c0 0.1858125 0.0736875 0.36393749999999997 0.2049375 0.4951875 0.13125 0.13125 0.309375 0.205125 0.4951875 0.205125Z"></path><path fill="#afdad2" stroke="#ffffff" stroke-width="0.4688" d="M27.3680625 74.92725c0.15 0 0.29362499999999997 -0.0594375 0.39975 -0.1655625 0.1059375 -0.1059375 0.1655625 -0.24975000000000003 0.1655625 -0.39956250000000004s-0.059625000000000004 -0.29362499999999997 -0.1655625 -0.39956250000000004c-0.106125 -0.1059375 -0.24975000000000003 -0.1655625 -0.39975 -0.1655625 -0.1498125 0 -0.29362499999999997 0.059625000000000004 -0.39956250000000004 0.1655625 -0.1059375 0.1059375 -0.1655625 0.24975000000000003 -0.1655625 0.39956250000000004s0.059625000000000004 0.29362499999999997 0.1655625 0.39956250000000004c0.1059375 0.106125 0.24975000000000003 0.1655625 0.39956250000000004 0.1655625Z"></path><path fill="#afdad2" stroke="#ffffff" stroke-width="0.4688" d="M24.528 73.69725c0.19218749999999998 0 0.3766875 -0.0763125 0.512625 -0.21225 0.136125 -0.136125 0.2124375 -0.3204375 0.2124375 -0.5128125 0 -0.192375 -0.0763125 -0.376875 -0.2124375 -0.5128125 -0.1359375 -0.1359375 -0.3204375 -0.2124375 -0.512625 -0.2124375 -0.192375 0 -0.376875 0.07650000000000001 -0.5128125 0.2124375 -0.1359375 0.1359375 -0.2124375 0.3204375 -0.2124375 0.5128125 0 0.192375 0.07650000000000001 0.3766875 0.2124375 0.5128125 0.1359375 0.1359375 0.3204375 0.21225 0.5128125 0.21225Z"></path><path fill="#afdad2" stroke="#ffffff" stroke-width="0.4688" d="M16.52881875 76.6550625c0.2155875 0 0.4223625 -0.0856875 0.5748 -0.238125 0.1524375 -0.1524375 0.2380875 -0.35924999999999996 0.2380875 -0.5746875 0 -0.215625 -0.08565 -0.4224375 -0.2380875 -0.574875 -0.1524375 -0.1524375 -0.3592125 -0.238125 -0.5748 -0.238125 -0.21556875 0 -0.42234375 0.0856875 -0.57478125 0.238125 -0.1524375 0.1524375 -0.2380875 0.35924999999999996 -0.2380875 0.574875 0 0.2154375 0.08565 0.42225 0.2380875 0.5746875 0.1524375 0.1524375 0.3592125 0.238125 0.57478125 0.238125Z"></path><path fill="#afdad2" stroke="#ffffff" stroke-width="0.4688" d="M11.514131249999998 75.45675c0.11739374999999999 0 0.2299875 -0.0465 0.31299375 -0.1295625 0.08300624999999999 -0.0830625 0.12965625 -0.1955625 0.12965625 -0.3129375 0 -0.11737500000000001 -0.04665 -0.2300625 -0.12965625 -0.31312500000000004 -0.08300624999999999 -0.082875 -0.1956 -0.1295625 -0.31299375 -0.1295625s-0.23000625 0.0466875 -0.3130125 0.1295625c-0.08300624999999999 0.0830625 -0.1296375 0.19575 -0.1296375 0.31312500000000004s0.04663125 0.229875 0.1296375 0.3129375c0.08300624999999999 0.0830625 0.19561875 0.1295625 0.3130125 0.1295625Z"></path><path fill="#afdad2" stroke="#ffffff" stroke-width="0.4688" d="M13.6183125 75.1618125c0.15219375000000002 0 0.29818125 -0.060562500000000005 0.4057875 -0.1681875 0.107625 -0.107625 0.16809375 -0.25349999999999995 0.16809375 -0.40575 0 -0.15225 -0.06046875 -0.29812500000000003 -0.16809375 -0.40575 -0.10760624999999999 -0.107625 -0.25359375 -0.1681875 -0.4057875 -0.1681875 -0.15219375000000002 0 -0.29818125 0.060562500000000005 -0.4057875 0.1681875 -0.107625 0.107625 -0.16809375 0.25349999999999995 -0.16809375 0.40575 0 0.15225 0.06046875 0.29812500000000003 0.16809375 0.40575 0.10760624999999999 0.107625 0.25359375 0.1681875 0.4057875 0.1681875Z"></path><path fill="#afdad2" stroke="#ffffff" stroke-width="0.4688" d="M32.901 78.63674999999999c0.1875 0 0.3675 -0.074625 0.5000625 -0.2071875 0.13275 -0.13275 0.2071875 -0.31256249999999997 0.2071875 -0.50025 0 -0.1875 -0.0744375 -0.3675 -0.2071875 -0.5000625 -0.1325625 -0.13275 -0.31256249999999997 -0.2071875 -0.5000625 -0.2071875 -0.18768749999999998 0 -0.3675 0.0744375 -0.50025 0.2071875 -0.1325625 0.1325625 -0.2071875 0.31256249999999997 -0.2071875 0.5000625 0 0.18768749999999998 0.074625 0.3675 0.2071875 0.50025 0.13275 0.1325625 0.31256249999999997 0.2071875 0.50025 0.2071875Z"></path><path fill="#afdad2" stroke="#ffffff" stroke-width="0.4688" d="M25.1394375 74.9085c0.10425 0 0.2041875 -0.0414375 0.277875 -0.115125 0.0735 -0.0735 0.1149375 -0.1734375 0.1149375 -0.27768750000000003 0 -0.1040625 -0.0414375 -0.204 -0.1149375 -0.27768750000000003 -0.0736875 -0.0736875 -0.173625 -0.115125 -0.277875 -0.115125 -0.1040625 0 -0.204 0.0414375 -0.27768750000000003 0.115125 -0.0736875 0.0736875 -0.115125 0.173625 -0.115125 0.27768750000000003 0 0.10425 0.0414375 0.2041875 0.115125 0.27768750000000003 0.0736875 0.0736875 0.173625 0.115125 0.27768750000000003 0.115125Z"></path><path fill="#afdad2" stroke="#ffffff" stroke-width="0.4688" d="M16.7987625 74.9885625c0.19756875000000002 0 0.387075 -0.0785625 0.52678125 -0.21825 0.13970625 -0.1396875 0.2182125 -0.32925 0.2182125 -0.5268750000000001 0 -0.19743750000000002 -0.07850625 -0.387 -0.2182125 -0.5266875 -0.13970625 -0.1396875 -0.3292125 -0.21825 -0.52678125 -0.21825 -0.19756875000000002 0 -0.387075 0.0785625 -0.52678125 0.21825 -0.13970625 0.1396875 -0.2182125 0.32925 -0.2182125 0.5266875 0 0.197625 0.07850625 0.38718749999999996 0.2182125 0.5268750000000001 0.13970625 0.1396875 0.3292125 0.21825 0.52678125 0.21825Z"></path><path fill="#afdad2" stroke="#ffffff" stroke-width="0.4688" d="M5.8671750000000005 84.1205625c0.17178749999999998 0 0.3365625 -0.06825 0.458025 -0.18975 0.12148125 -0.1215 0.18973125000000002 -0.2863125 0.18973125000000002 -0.4580625 0 -0.17175 -0.06825 -0.3365625 -0.18973125000000002 -0.4580625 -0.1214625 -0.1215 -0.2862375 -0.18975 -0.458025 -0.18975 -0.17178749999999998 0 -0.3365625 0.06825 -0.458025 0.18975 -0.12148125 0.1215 -0.18973125000000002 0.2863125 -0.18973125000000002 0.4580625 0 0.17175 0.06825 0.3365625 0.18973125000000002 0.4580625 0.1214625 0.1215 0.2862375 0.18975 0.458025 0.18975Z"></path><path fill="#afdad2" stroke="#ffffff" stroke-width="0.4688" d="M7.591518749999999 84.34387500000001c0.199575 0 0.3910125 -0.0793125 0.532125 -0.2205 0.14113125 -0.14100000000000001 0.22042499999999998 -0.33243750000000005 0.22042499999999998 -0.532125 0 -0.19949999999999998 -0.07929375 -0.3909375 -0.22042499999999998 -0.532125 -0.14111249999999997 -0.14100000000000001 -0.33254999999999996 -0.2203125 -0.532125 -0.2203125s-0.39099375 0.0793125 -0.532125 0.2203125c-0.14111249999999997 0.14118750000000002 -0.22040625 0.332625 -0.22040625 0.532125 0 0.1996875 0.07929375 0.391125 0.22040625 0.532125 0.14113125 0.14118750000000002 0.33254999999999996 0.2205 0.532125 0.2205Z"></path><path fill="#afdad2" stroke="#ffffff" stroke-width="0.4688" d="M13.673475 77.710125c0.192075 0 0.3763125 -0.0763125 0.5121375 -0.21206250000000001 0.13580625 -0.1359375 0.21211875 -0.32006249999999997 0.21211875 -0.51225 0 -0.192 -0.0763125 -0.3763125 -0.21211875 -0.5120625 -0.135825 -0.13575 -0.32006249999999997 -0.21206250000000001 -0.5121375 -0.21206250000000001s-0.3763125 0.0763125 -0.51211875 0.21206250000000001c-0.135825 0.13575 -0.2121375 0.32006249999999997 -0.2121375 0.5120625 0 0.19218749999999998 0.0763125 0.3763125 0.2121375 0.51225 0.13580625 0.13575 0.32004375 0.21206250000000001 0.51211875 0.21206250000000001Z"></path><path fill="#afdad2" stroke="#ffffff" stroke-width="0.4688" d="M6.0801375 82.5084375c0.148875 0 0.29165625 -0.059062500000000004 0.39691875 -0.16443750000000001 0.10528124999999999 -0.10518749999999999 0.16441875 -0.2480625 0.16441875 -0.3969375s-0.059137499999999996 -0.2915625 -0.16441875 -0.3969375c-0.10526250000000001 -0.10518749999999999 -0.24804374999999998 -0.16425 -0.39691875 -0.16425s-0.29165625 0.059062500000000004 -0.39691875 0.16425c-0.10528124999999999 0.105375 -0.16441875 0.2480625 -0.16441875 0.3969375s0.059137499999999996 0.29174999999999995 0.16441875 0.3969375c0.10526250000000001 0.105375 0.24804374999999998 0.16443750000000001 0.39691875 0.16443750000000001Z"></path><path fill="#afdad2" stroke="#ffffff" stroke-width="0.4688" d="M28.713562500000002 74.36006250000001c0.1629375 0 0.3193125 -0.064875 0.4344375 -0.18 0.115125 -0.115125 0.18 -0.2715 0.18 -0.4344375 0 -0.1629375 -0.064875 -0.319125 -0.18 -0.43425 -0.115125 -0.1153125 -0.2715 -0.18 -0.4344375 -0.18 -0.16275 0 -0.319125 0.06468750000000001 -0.43425 0.18 -0.1153125 0.115125 -0.18 0.2713125 -0.18 0.43425s0.06468750000000001 0.3193125 0.18 0.4344375c0.115125 0.115125 0.2715 0.18 0.43425 0.18Z"></path><path fill="#afdad2" stroke="#ffffff" stroke-width="0.4688" d="M11.6130375 76.93912499999999c0.14825625 0 0.2904375 -0.058875 0.39526875 -0.1636875 0.1048125 -0.1048125 0.16370625 -0.24693750000000003 0.16370625 -0.39525 0 -0.1483125 -0.05889375 -0.2904375 -0.16370625 -0.39525 -0.10483125 -0.1048125 -0.2470125 -0.1636875 -0.39526875 -0.1636875 -0.14823750000000002 0 -0.29041875 0.058875 -0.39525 0.1636875 -0.1048125 0.1048125 -0.16370625 0.24693750000000003 -0.16370625 0.39525 0 0.1483125 0.05889375 0.2904375 0.16370625 0.39525 0.10483125 0.1048125 0.2470125 0.1636875 0.39525 0.1636875Z"></path><path fill="#afdad2" stroke="#ffffff" stroke-width="0.4688" d="M8.90289375 83.6724375c0.20791875 0 0.4073625 -0.08249999999999999 0.5543812499999999 -0.22949999999999998 0.14701874999999998 -0.147 0.22963124999999998 -0.3465 0.22963124999999998 -0.5544375 0 -0.2079375 -0.0826125 -0.4074375 -0.22963124999999998 -0.5544375 -0.14701874999999998 -0.147 -0.3464625 -0.22949999999999998 -0.5543812499999999 -0.22949999999999998 -0.20791875 0 -0.40734375 0.08249999999999999 -0.5543625 0.22949999999999998 -0.14701874999999998 0.147 -0.22963124999999998 0.3465 -0.22963124999999998 0.5544375 0 0.2079375 0.0826125 0.4074375 0.22963124999999998 0.5544375 0.14701874999999998 0.147 0.34644375 0.22949999999999998 0.5543625 0.22949999999999998Z"></path><path fill="#afdad2" stroke="#ffffff" stroke-width="0.4688" d="M34.389 78.3361875c0.2038125 0 0.39918750000000003 -0.081 0.5431875 -0.22499999999999998 0.144 -0.144 0.22499999999999998 -0.339375 0.22499999999999998 -0.5431875 0 -0.203625 -0.081 -0.39899999999999997 -0.22499999999999998 -0.5431875 -0.144 -0.144 -0.339375 -0.22481250000000003 -0.5431875 -0.22481250000000003 -0.203625 0 -0.39899999999999997 0.0808125 -0.5431875 0.22481250000000003 -0.144 0.1441875 -0.22481250000000003 0.33956250000000004 -0.22481250000000003 0.5431875 0 0.2038125 0.0808125 0.39918750000000003 0.22481250000000003 0.5431875 0.1441875 0.144 0.33956250000000004 0.22499999999999998 0.5431875 0.22499999999999998Z"></path><path fill="#afdad2" stroke="#ffffff" stroke-width="0.4688" d="M37.157624999999996 78.245625c0.1400625 0 0.2745 -0.0556875 0.3735 -0.1546875 0.09918750000000001 -0.09918750000000001 0.154875 -0.2334375 0.154875 -0.3736875 0 -0.1400625 -0.0556875 -0.2745 -0.154875 -0.3735 -0.099 -0.099 -0.2334375 -0.1546875 -0.3735 -0.1546875 -0.1400625 0 -0.2745 0.0556875 -0.3735 0.1546875 -0.09918750000000001 0.099 -0.154875 0.2334375 -0.154875 0.3735 0 0.14025 0.0556875 0.2745 0.154875 0.3736875 0.099 0.099 0.2334375 0.1546875 0.3735 0.1546875Z"></path><path fill="#afdad2" stroke="#ffffff" stroke-width="0.4688" d="M18.894375 76.93668749999999c0.156 0 0.3058125 -0.061875 0.4160625 -0.17231249999999998 0.11043750000000001 -0.11025 0.17231249999999998 -0.2600625 0.17231249999999998 -0.4160625s-0.061875 -0.3058125 -0.17231249999999998 -0.4160625c-0.11025 -0.11043750000000001 -0.2600625 -0.17231249999999998 -0.4160625 -0.17231249999999998 -0.15601875 0 -0.30571875 0.061875 -0.4160625 0.17231249999999998 -0.11034375 0.11025 -0.17235 0.2600625 -0.17235 0.4160625s0.062006250000000006 0.3058125 0.17235 0.4160625c0.11034375 0.11043750000000001 0.26004375 0.17231249999999998 0.4160625 0.17231249999999998Z"></path><path fill="#afdad2" stroke="#ffffff" stroke-width="0.4688" d="M31.8121875 76.27687499999999c0.13068749999999998 0 0.25593750000000004 -0.0519375 0.348375 -0.144375 0.09243749999999999 -0.09243749999999999 0.144375 -0.21787499999999999 0.144375 -0.3485625 0 -0.13068749999999998 -0.0519375 -0.25593750000000004 -0.144375 -0.348375 -0.09243749999999999 -0.09243749999999999 -0.21768749999999998 -0.144375 -0.348375 -0.144375s-0.256125 0.0519375 -0.3485625 0.144375c-0.09243749999999999 0.09243749999999999 -0.144375 0.21768749999999998 -0.144375 0.348375s0.0519375 0.256125 0.144375 0.3485625c0.09243749999999999 0.09243749999999999 0.21787499999999999 0.144375 0.3485625 0.144375Z"></path><path fill="#afdad2" stroke="#ffffff" stroke-width="0.4688" d="M31.6003125 75.04106250000001c0.2131875 0 0.4175625 -0.0845625 0.5683125 -0.2353125 0.15075 -0.15075 0.2355 -0.35531250000000003 0.2355 -0.5685 0 -0.21300000000000002 -0.08474999999999999 -0.4175625 -0.2355 -0.5683125 -0.15075 -0.15075 -0.355125 -0.2353125 -0.5683125 -0.2353125 -0.2131875 0 -0.4175625 0.0845625 -0.5683125 0.2353125 -0.15075 0.15075 -0.2355 0.35531250000000003 -0.2355 0.5683125 0 0.2131875 0.08474999999999999 0.41775 0.2355 0.5685 0.15075 0.15075 0.355125 0.2353125 0.5683125 0.2353125Z"></path><path fill="#afdad2" stroke="#ffffff" stroke-width="0.4688" d="M21.689625 76.41075000000001c0.1906875 0 0.3735 -0.07575 0.508125 -0.21056249999999999 0.1348125 -0.1348125 0.21056249999999999 -0.317625 0.21056249999999999 -0.508125 0 -0.1905 -0.07575 -0.3733125 -0.21056249999999999 -0.508125 -0.134625 -0.1348125 -0.31743750000000004 -0.21056249999999999 -0.508125 -0.21056249999999999 -0.1905 0 -0.3733125 0.07575 -0.508125 0.21056249999999999 -0.134625 0.1348125 -0.21037499999999998 0.317625 -0.21037499999999998 0.508125 0 0.1905 0.07575 0.3733125 0.21037499999999998 0.508125 0.1348125 0.1348125 0.317625 0.21056249999999999 0.508125 0.21056249999999999Z"></path><path fill="#afdad2" stroke="#ffffff" stroke-width="0.4688" d="M36.876000000000005 79.885125c0.1635 0 0.32025000000000003 -0.06506250000000001 0.43593750000000003 -0.1805625 0.1155 -0.1156875 0.1805625 -0.2724375 0.1805625 -0.43593750000000003s-0.06506250000000001 -0.3204375 -0.1805625 -0.43593750000000003c-0.1156875 -0.1156875 -0.2724375 -0.1805625 -0.43593750000000003 -0.1805625s-0.3204375 0.064875 -0.43593750000000003 0.1805625c-0.1156875 0.1155 -0.1805625 0.2724375 -0.1805625 0.43593750000000003s0.064875 0.32025000000000003 0.1805625 0.43593750000000003c0.1155 0.1155 0.2724375 0.1805625 0.43593750000000003 0.1805625Z"></path><path fill="#afdad2" stroke="#ffffff" stroke-width="0.4688" d="M7.4440875 85.45162499999999c0.0958875 0 0.18785625 -0.038250000000000006 0.25567500000000004 -0.1059375 0.0678 -0.067875 0.10590000000000001 -0.15975 0.10590000000000001 -0.25575 0 -0.0958125 -0.0381 -0.187875 -0.10590000000000001 -0.2555625 -0.06781875 -0.067875 -0.1597875 -0.1059375 -0.25567500000000004 -0.1059375 -0.0958875 0 -0.18785625 0.0380625 -0.25567500000000004 0.1059375 -0.0678 0.0676875 -0.10590000000000001 0.15975 -0.10590000000000001 0.2555625 0 0.096 0.0381 0.187875 0.10590000000000001 0.25575 0.06781875 0.0676875 0.1597875 0.1059375 0.25567500000000004 0.1059375Z"></path><path fill="#afdad2" stroke="#ffffff" stroke-width="0.4688" d="M15.044268749999999 75.4254375c0.17904375 0 0.35075625 -0.0710625 0.47735625 -0.197625 0.1266 -0.12674999999999997 0.19771875 -0.2983125 0.19771875 -0.477375s-0.07111875 -0.35081249999999997 -0.19771875 -0.477375 -0.2983125 -0.1978125 -0.47735625 -0.1978125c-0.179025 0 -0.35075625 0.07125 -0.47733749999999997 0.1978125 -0.1266 0.12656250000000002 -0.1977375 0.2983125 -0.1977375 0.477375s0.0711375 0.350625 0.1977375 0.477375c0.12658125 0.12656250000000002 0.2983125 0.197625 0.47733749999999997 0.197625Z"></path><path fill="#afdad2" stroke="#ffffff" stroke-width="0.4688" d="M19.971 74.32368749999999c0.127875 0 0.2505 -0.0508125 0.3410625 -0.14118750000000002 0.090375 -0.090375 0.14118750000000002 -0.21300000000000002 0.14118750000000002 -0.340875 0 -0.127875 -0.0508125 -0.2506875 -0.14118750000000002 -0.3410625 -0.0905625 -0.090375 -0.2131875 -0.14118750000000002 -0.3410625 -0.14118750000000002 -0.127875 0 -0.2505 0.0508125 -0.340875 0.14118750000000002 -0.0905625 0.090375 -0.141375 0.2131875 -0.141375 0.3410625 0 0.127875 0.0508125 0.2505 0.141375 0.340875 0.090375 0.090375 0.21300000000000002 0.14118750000000002 0.340875 0.14118750000000002Z"></path><path fill="#afdad2" stroke="#ffffff" stroke-width="0.4688" d="M33.965812500000006 75.80962500000001c0.160875 0 0.3151875 -0.0639375 0.429 -0.1775625 0.1138125 -0.1138125 0.17775 -0.268125 0.17775 -0.4291875 0 -0.160875 -0.0639375 -0.3151875 -0.17775 -0.429 -0.1138125 -0.113625 -0.268125 -0.1775625 -0.429 -0.1775625 -0.160875 0 -0.3151875 0.0639375 -0.429 0.1775625 -0.1138125 0.1138125 -0.17775 0.268125 -0.17775 0.429 0 0.1610625 0.0639375 0.31537499999999996 0.17775 0.4291875 0.1138125 0.113625 0.268125 0.1775625 0.429 0.1775625Z"></path><path fill="#afdad2" stroke="#ffffff" stroke-width="0.4688" d="M18.623718750000002 73.3513125c0.20015625 0 0.39196875000000003 -0.0795 0.53353125 -0.2210625 0.141375 -0.141375 0.22087500000000002 -0.33337500000000003 0.22087500000000002 -0.5334375 0 -0.2000625 -0.0795 -0.39206250000000004 -0.22087500000000002 -0.5334375 -0.1415625 -0.1415625 -0.33337500000000003 -0.2210625 -0.53353125 -0.2210625 -0.20008125 0 -0.3919875 0.0795 -0.533475 0.2210625 -0.1414875 0.141375 -0.2209875 0.33337500000000003 -0.2209875 0.5334375 0 0.2000625 0.0795 0.39206250000000004 0.2209875 0.5334375 0.1414875 0.1415625 0.33339375 0.2210625 0.533475 0.2210625Z"></path><path fill="#afdad2" stroke="#ffffff" stroke-width="0.4688" d="M30.4605 74.07074999999999c0.1850625 0 0.3624375 -0.0735 0.4933125 -0.204375 0.130875 -0.13068749999999998 0.204375 -0.30824999999999997 0.204375 -0.4933125 0 -0.18487499999999998 -0.0735 -0.3624375 -0.204375 -0.4933125 -0.130875 -0.13068749999999998 -0.30824999999999997 -0.2041875 -0.4933125 -0.2041875 -0.1850625 0 -0.3624375 0.0735 -0.4933125 0.2041875 -0.130875 0.130875 -0.204375 0.30843750000000003 -0.204375 0.4933125 0 0.1850625 0.0735 0.362625 0.204375 0.4933125 0.130875 0.130875 0.30824999999999997 0.204375 0.4933125 0.204375Z"></path><path fill="#afdad2" stroke="#ffffff" stroke-width="0.4688" d="M15.222881249999999 73.32825000000001c0.14821874999999998 0 0.2904 -0.059062500000000004 0.39519375 -0.16387500000000002 0.1048125 -0.10462500000000001 0.16370625 -0.24693750000000003 0.16370625 -0.3950625 0 -0.1483125 -0.05889375 -0.2904375 -0.16370625 -0.39525 -0.10479375 -0.1048125 -0.246975 -0.1636875 -0.39519375 -0.1636875 -0.14821874999999998 0 -0.29038125000000004 0.058875 -0.39519375 0.1636875 -0.10479375 0.1048125 -0.1636875 0.24693750000000003 -0.1636875 0.39525 0 0.148125 0.05889375 0.2904375 0.1636875 0.3950625 0.1048125 0.1048125 0.246975 0.16387500000000002 0.39519375 0.16387500000000002Z"></path><path fill="#afdad2" stroke="#ffffff" stroke-width="0.4688" d="M16.56598125 72.89512500000001c0.16351875 0 0.32038125 -0.064875 0.43599374999999996 -0.1805625 0.11563125 -0.1156875 0.1806 -0.2724375 0.1806 -0.43593750000000003s-0.06496875 -0.3204375 -0.1806 -0.436125c-0.11561249999999999 -0.1155 -0.272475 -0.1805625 -0.43599374999999996 -0.1805625 -0.16351875 0 -0.3203625 0.06506250000000001 -0.43599374999999996 0.1805625 -0.11561249999999999 0.1156875 -0.18058125000000003 0.272625 -0.18058125000000003 0.436125s0.06496875 0.32025000000000003 0.18058125000000003 0.43593750000000003c0.11563125 0.1156875 0.272475 0.1805625 0.43599374999999996 0.1805625Z"></path><path fill="#afdad2" stroke="#ffffff" stroke-width="0.4688" d="M26.068875 72.121875c0.1918125 0 0.37575 -0.0763125 0.5115 -0.211875 0.1355625 -0.13575 0.211875 -0.3196875 0.211875 -0.5115 0 -0.192 -0.0763125 -0.37593750000000004 -0.211875 -0.5115 -0.13575 -0.13575 -0.3196875 -0.211875 -0.5115 -0.211875 -0.1918125 0 -0.37593750000000004 0.076125 -0.5115 0.211875 -0.13575 0.1355625 -0.211875 0.3195 -0.211875 0.5115 0 0.1918125 0.076125 0.37575 0.211875 0.5115 0.1355625 0.1355625 0.3196875 0.211875 0.5115 0.211875Z"></path><path fill="#afdad2" stroke="#ffffff" stroke-width="0.4688" d="M23.161875 72.2761875c0.14925 0 0.2925 -0.059250000000000004 0.3980625 -0.1648125 0.1055625 -0.1055625 0.16499999999999998 -0.24881250000000002 0.16499999999999998 -0.3980625 0 -0.1494375 -0.0594375 -0.2926875 -0.16499999999999998 -0.39825 -0.1055625 -0.1055625 -0.24881250000000002 -0.1648125 -0.3980625 -0.1648125 -0.14925 0 -0.2925 0.059250000000000004 -0.3980625 0.1648125 -0.1055625 0.1055625 -0.16499999999999998 0.24881250000000002 -0.16499999999999998 0.39825 0 0.14925 0.0594375 0.2925 0.16499999999999998 0.3980625 0.1055625 0.1055625 0.24881250000000002 0.1648125 0.3980625 0.1648125Z"></path><path fill="#afdad2" stroke="#ffffff" stroke-width="0.4688" d="M27.5135625 72.963375c0.11418750000000001 0 0.2236875 -0.045375 0.3045 -0.126 0.0808125 -0.0808125 0.1261875 -0.19031250000000002 0.1261875 -0.3045 0 -0.11418750000000001 -0.045375 -0.2236875 -0.1261875 -0.3045 -0.0808125 -0.08062499999999999 -0.19031250000000002 -0.126 -0.3045 -0.126 -0.114 0 -0.2236875 0.045375 -0.3043125 0.126 -0.0808125 0.0808125 -0.1261875 0.19031250000000002 -0.1261875 0.3045 0 0.11418750000000001 0.045375 0.2236875 0.1261875 0.3045 0.08062499999999999 0.08062499999999999 0.19031250000000002 0.126 0.3043125 0.126Z"></path><path fill="#afdad2" stroke="#ffffff" stroke-width="0.4688" d="M26.076 73.62487499999999c0.2116875 0 0.4149375 -0.0841875 0.5645625 -0.2338125 0.14962499999999998 -0.1498125 0.2338125 -0.352875 0.2338125 -0.5645625 0 -0.2116875 -0.0841875 -0.41475 -0.2338125 -0.5645625 -0.14962499999999998 -0.14962499999999998 -0.352875 -0.2338125 -0.5645625 -0.2338125 -0.2116875 0 -0.41475 0.0841875 -0.564375 0.2338125 -0.1498125 0.1498125 -0.23399999999999999 0.352875 -0.23399999999999999 0.5645625 0 0.2116875 0.0841875 0.41475 0.23399999999999999 0.5645625 0.14962499999999998 0.14962499999999998 0.3526875 0.2338125 0.564375 0.2338125Z"></path><path fill="#afdad2" stroke="#ffffff" stroke-width="0.4688" d="M29.244374999999998 72.84956249999999c0.14625 0 0.2865 -0.058124999999999996 0.38999999999999996 -0.161625 0.1035 -0.1033125 0.161625 -0.24375000000000002 0.161625 -0.38999999999999996 0 -0.14625 -0.058124999999999996 -0.28668750000000004 -0.161625 -0.3901875 -0.1035 -0.1033125 -0.24375000000000002 -0.161625 -0.38999999999999996 -0.161625 -0.1464375 0 -0.28668750000000004 0.058312499999999996 -0.3901875 0.161625 -0.1035 0.1035 -0.161625 0.24393749999999997 -0.161625 0.3901875 0 0.14625 0.058124999999999996 0.28668750000000004 0.161625 0.38999999999999996 0.1035 0.1035 0.24375000000000002 0.161625 0.3901875 0.161625Z"></path><path fill="#afdad2" stroke="#ffffff" stroke-width="0.4688" d="M4.4887875 86.3075625c0.1837875 0 0.360075 -0.07293749999999999 0.49005 -0.202875 0.12995625 -0.1299375 0.20296875 -0.30637499999999995 0.20296875 -0.49012500000000003 0 -0.18375 -0.07301250000000001 -0.36 -0.20296875 -0.48993749999999997 -0.129975 -0.13012500000000002 -0.30626250000000005 -0.20306249999999998 -0.49005 -0.20306249999999998 -0.1837875 0 -0.360075 0.07293749999999999 -0.49003125000000003 0.20306249999999998 -0.12995625 0.1299375 -0.2029875 0.3061875 -0.2029875 0.48993749999999997 0 0.18375 0.07303124999999999 0.3601875 0.2029875 0.49012500000000003 0.12995625 0.1299375 0.30624375 0.202875 0.49003125000000003 0.202875Z"></path><path fill="#afdad2" stroke="#ffffff" stroke-width="0.4688" d="M20.2125 72.801c0.099 0 0.19387500000000002 -0.039375 0.264 -0.10931249999999999 0.0699375 -0.0699375 0.109125 -0.1648125 0.109125 -0.2638125 0 -0.099 -0.0391875 -0.19387500000000002 -0.109125 -0.2638125 -0.070125 -0.0699375 -0.16499999999999998 -0.10931249999999999 -0.264 -0.10931249999999999 -0.0988125 0 -0.1936875 0.039375 -0.2638125 0.10931249999999999 -0.0699375 0.0699375 -0.109125 0.1648125 -0.109125 0.2638125 0 0.099 0.0391875 0.19387500000000002 0.109125 0.2638125 0.070125 0.0699375 0.16499999999999998 0.10931249999999999 0.2638125 0.10931249999999999Z"></path><path fill="#afdad2" stroke="#ffffff" stroke-width="0.4688" d="M33.0301875 74.5089375c0.11943750000000002 0 0.23399999999999999 -0.0474375 0.318375 -0.1318125 0.0845625 -0.0845625 0.132 -0.199125 0.132 -0.318375 0 -0.11943750000000002 -0.0474375 -0.23399999999999999 -0.132 -0.31856249999999997 -0.08437499999999999 -0.08437499999999999 -0.1989375 -0.1318125 -0.318375 -0.1318125s-0.23399999999999999 0.0474375 -0.318375 0.1318125c-0.08437499999999999 0.0845625 -0.1318125 0.199125 -0.1318125 0.31856249999999997 0 0.11925000000000001 0.0474375 0.2338125 0.1318125 0.318375 0.08437499999999999 0.08437499999999999 0.1989375 0.1318125 0.318375 0.1318125Z"></path><path fill="#afdad2" stroke="#ffffff" stroke-width="0.4688" d="M24.6151875 72.2566875c0.1726875 0 0.33825 -0.068625 0.4605 -0.1906875 0.1220625 -0.1220625 0.1906875 -0.28781249999999997 0.1906875 -0.4605 0 -0.1726875 -0.068625 -0.3384375 -0.1906875 -0.4605 -0.12224999999999998 -0.1220625 -0.28781249999999997 -0.1906875 -0.4605 -0.1906875 -0.1726875 0 -0.3384375 0.068625 -0.4605 0.1906875 -0.1220625 0.1220625 -0.1906875 0.28781249999999997 -0.1906875 0.4605 0 0.1726875 0.068625 0.3384375 0.1906875 0.4605 0.1220625 0.1220625 0.28781249999999997 0.1906875 0.4605 0.1906875Z"></path><path fill="#afdad2" stroke="#ffffff" stroke-width="0.4688" d="M9.744375 82.1465625c0.19895625 0 0.38979375 -0.079125 0.530475 -0.21975 0.1407 -0.1408125 0.21973125000000002 -0.3315 0.21973125000000002 -0.5304375 0 -0.199125 -0.07903125 -0.3898125 -0.21973125000000002 -0.5306249999999999 -0.14068125 -0.140625 -0.33151875 -0.21975 -0.530475 -0.21975 -0.198975 0 -0.3898125 0.079125 -0.53049375 0.21975 -0.1407 0.1408125 -0.21973125000000002 0.3315 -0.21973125000000002 0.5306249999999999 0 0.1989375 0.07903125 0.389625 0.21973125000000002 0.5304375 0.14068125 0.140625 0.33151875 0.21975 0.53049375 0.21975Z"></path><path fill="#ffffff" d="m30.4925625 78.6028125 -0.7741875 -0.018562500000000003 -0.7745625 0.0178125 -0.7743749999999999 0.0538125 -0.7738125 0.08925000000000001 -0.77325 0.123375 -0.7723125 0.1561875 -0.7711875 0.18712499999999999 -0.7700625 0.2158125 -0.7689375 0.241875 -0.7674375 0.265125 -0.7661250000000001 0.2859375 -0.7649999999999999 0.303375 -0.7636875 0.3178125 -0.7625625 0.3290625 -0.7614375 0.3373125 -0.76025625 0.34275 -1.5177 0.6894375 -0.7574625 0.3414375 -0.75665625 0.3361875 -0.7558499999999999 0.3286875 -0.75515625 0.3193125 -0.75448125 0.30824999999999997 -0.7539 0.2956875 -0.75339375 0.2821875 -0.75294375 0.2675625 -0.7525875000000001 0.25256249999999997 -0.7522875 0.23700000000000002 -0.75208125 0.22125 -0.7519687500000001 0.20550000000000002 -0.7519125 0.1899375 -0.75195 0.17475000000000002 -0.75204375 0.1599375 -0.75219375 0.14550000000000002 -0.7524187499999999 0.132 -0.825375 0.1303125 -0.036375000000000005 0.25106249999999997c-0.13820625 0.9536250000000001 -0.20769374999999998 1.9164375 -0.20769374999999998 2.881125 0 0.7515 0.04216875 1.5020625 0.1261875 2.248125l0.05255625 0.46649999999999997 1.0898625 -0.48375 0.76018125 -0.34275 1.517625 -0.6894375 0.75740625 -0.34125 0.75639375 -0.33525 0.7553249999999999 -0.3260625 0.7542187499999999 -0.313875 0.7530187500000001 -0.2986875 0.7518 -0.28031249999999996 0.75050625 -0.2595 0.74923125 -0.235875 0.7479374999999999 -0.2094375 0.74668125 -0.181125 0.74548125 -0.1509375 0.7444124999999999 -0.118875 0.74349375 -0.0856875 0.7428374999999999 -0.0515625 0.7423875 -0.0170625 0.74225625 0.0178125 0.7423875 0.052312500000000005 0.742875 0.08625 0.7434375000000001 0.11943750000000002 0.744375 0.151125 0.7455 0.1813125 0.746625 0.209625 0.7479374999999999 0.23568750000000002 0.74925 0.2593125 0.7505625 0.280125 0.7518750000000001 0.2983125 0.753 0.3135 0.754125 0.3255 0.7554375 0.33468749999999997 0.756375 0.340875 1.51575 0.6886875 0.7591875 0.34237500000000004 0.7601249999999999 0.33768750000000003 0.760875 0.3309375 0.761625 0.3219375 0.7621874999999999 0.3114375 0.76275 0.29924999999999996 0.7635000000000001 0.2859375 0.7636875 0.2716875 0.76425 0.2565 0.7644375 0.2409375 0.764625 0.22518749999999998 0.764625 0.2090625 0.7648125 0.1933125 0.7648125 0.1779375 1.0755 0.2289375 0.0894375 -0.307125c0.5068125 -1.7413125 0.7756875 -3.5437499999999997 0.79875 -5.3585625l0.0015 -0.2529375 -0.0015 -0.2551875 -0.00525 -0.27318749999999997c-0.064875 -2.4613125 -0.5806874999999999 -4.8879375 -1.5223125 -7.1611875000000005l-0.06937499999999999 -0.16575 -0.12412499999999999 -0.286875 -0.781875 -0.35175 -0.7601249999999999 -0.33675 -0.7612500000000001 -0.3286875 -0.7625625 -0.31743750000000004 -0.7636875 -0.303 -0.7649999999999999 -0.2855625 -0.7661250000000001 -0.2649375 -0.767625 -0.241875 -0.7687499999999999 -0.2158125 -0.7700625 -0.18712499999999999 -0.7711875 -0.15656250000000002 -0.7723125 -0.12412499999999999 -0.77325 -0.08962500000000001 -0.774 -0.0545625Zm-0.78225 0.32568749999999996 0.75825 0.017625000000000002 0.7584375000000001 0.0530625 0.7584375000000001 0.08775000000000001 0.75825 0.1215 0.7584375000000001 0.15375 0.75825 0.18412499999999998 0.7584375000000001 0.212625 0.7584375000000001 0.23887500000000003 0.75825 0.2623125 0.7584375000000001 0.2829375 0.75825 0.30074999999999996 0.7584375000000001 0.31575 0.7584375000000001 0.327375 0.75825 0.336 0.6605625 0.29700000000000004c0.046875 0.1078125 0.093 0.2161875 0.138 0.3249375 0.925875 2.235375 1.4325 4.6205625 1.4960625 7.0363125l0.00525 0.26849999999999996 0.0015 0.250875 -0.0015 0.250875c-0.0226875 1.78575 -0.287625 3.5574375 -0.7850625 5.2666875l-0.756375 -0.1610625 -0.7584375000000001 -0.17625 -0.75825 -0.191625 -0.7584375000000001 -0.207375 -0.7584375000000001 -0.223125 -0.75825 -0.23887500000000003 -0.7584375000000001 -0.254625 -0.75825 -0.269625 -0.7584375000000001 -0.2840625 -0.7584375000000001 -0.2975625 -0.75825 -0.30975 -0.7584375000000001 -0.32062500000000005 -0.75825 -0.3298125 -0.7584375000000001 -0.3369375 -0.7584375000000001 -0.342 -1.5166875 -0.6890625 -0.7584375000000001 -0.341625 -0.75825 -0.336 -0.7584375000000001 -0.327375 -0.75825 -0.31575 -0.7584375000000001 -0.30074999999999996 -0.7584375000000001 -0.2829375 -0.75825 -0.2623125 -0.7584375000000001 -0.23887500000000003 -0.75825 -0.212625 -0.7584375000000001 -0.18412499999999998 -0.7584375000000001 -0.15375 -0.75825 -0.1215 -0.7584375000000001 -0.08775000000000001 -0.75834375 -0.0530625 -0.7583624999999999 -0.017625000000000002 -0.7583624999999999 0.017625000000000002 -0.7583624999999999 0.0530625 -0.7583624999999999 0.08775000000000001 -0.7583624999999999 0.1215 -0.7583624999999999 0.15375 -0.7583624999999999 0.18412499999999998 -0.7583624999999999 0.212625 -0.7583624999999999 0.23887500000000003 -0.7583624999999999 0.2623125 -0.75838125 0.2829375 -0.7583624999999999 0.30074999999999996 -0.7583624999999999 0.31575 -0.7583624999999999 0.327375 -0.7583624999999999 0.336 -0.7583624999999999 0.341625 -1.5167249999999999 0.6890625 -0.7583624999999999 0.342 -0.660675 0.29325c-0.0824625 -0.7321875 -0.12403125 -1.4698125000000002 -0.12403125 -2.2095 0 -0.9496874999999999 0.06853125 -1.8960000000000001 0.20413125 -2.831625l0.5805750000000001 -0.091875 0.7583624999999999 -0.13293750000000001 0.7583624999999999 -0.147 0.7583624999999999 -0.16124999999999998 0.7583624999999999 -0.17625 0.7583624999999999 -0.191625 0.7583624999999999 -0.207375 0.7583624999999999 -0.223125 0.7583624999999999 -0.23887500000000003 0.75838125 -0.254625 0.7583624999999999 -0.269625 0.7583624999999999 -0.2840625 0.7583624999999999 -0.2975625 0.7583624999999999 -0.30975 0.7583624999999999 -0.32062500000000005 0.7583624999999999 -0.3298125 0.7583624999999999 -0.3369375 0.7583624999999999 -0.342 1.5167249999999999 -0.6890625 0.75834375 -0.341625 0.7584375000000001 -0.336 0.75825 -0.327375 0.7584375000000001 -0.31575 0.7584375000000001 -0.30074999999999996 0.75825 -0.2829375 0.7584375000000001 -0.2623125 0.75825 -0.23887500000000003 0.7584375000000001 -0.212625 0.7584375000000001 -0.18412499999999998 0.75825 -0.15375 0.7584375000000001 -0.1215 0.75825 -0.08775000000000001 0.7584375000000001 -0.0530625 0.7584375000000001 -0.017625000000000002Z" stroke-width="1.875"></path><path fill="#7db0bc" stroke="#ffffff" d="m29.7103125 78.75637499999999 0.7663125000000001 0.018 0.7663125000000001 0.053625 0.7659374999999999 0.0886875 0.7655625 0.12243749999999999 0.7649999999999999 0.1550625 0.764625 0.1858125 0.763875 0.21412499999999998 0.7631249999999999 0.240375 0.76275 0.263625 0.7635000000000001 0.285 0.7610625 0.3020625 0.7605000000000001 0.3165 0.7599374999999999 0.3279375 0.7591875 0.336375 0.7209375 0.32437499999999997c0.056625 0.129 0.11193750000000001 0.2585625 0.1659375 0.388875 0.9339375 2.2546874999999997 1.4450625000000001 4.6606875 1.5091875 7.09875l0.00525 0.27075 0.0015 0.25312500000000004 -0.0015 0.2518125c-0.023625 1.8549375 -0.3061875 3.6944999999999997 -0.8371875 5.466l-0.915375 -0.1948125 -0.761625 -0.177 -0.7614375 -0.192375 -0.761625 -0.2083125 -0.761625 -0.22425 -0.7612500000000001 -0.23981250000000004 -0.7612500000000001 -0.2555625 -0.7610625 -0.27075 -0.760875 -0.285 -0.7606875 -0.2983125 -0.7603125000000001 -0.31068749999999995 -0.7599374999999999 -0.32137499999999997 -0.7595625 -0.3301875 -0.7591875 -0.3373125 -0.7588125 -0.3421875 -1.5163125 -0.688875 -0.7573124999999999 -0.34125 -0.7569375 -0.3354375 -0.7561875 -0.3264375 -0.7558125 -0.314625 -0.7550625 -0.2994375 -0.756375 -0.28237500000000004 -0.754125 -0.2608125 -0.7535624999999999 -0.2371875 -0.7528125 -0.211125 -0.75225 -0.182625 -0.7515 -0.1524375 -0.7513125 -0.1201875 -0.7507499999999999 -0.087 -0.75043125 -0.0525 -0.7503375 -0.017437499999999998 -0.7503375 0.017437499999999998 -0.75046875 0.0525 -0.75076875 0.087 -0.7511625 0.1201875 -0.75165 0.1524375 -0.75223125 0.182625 -0.75283125 0.211125 -0.75346875 0.2371875 -0.754125 0.2608125 -0.75313125 0.2810625 -0.75568125 0.2998125 -0.7563 0.314625 -0.75684375 0.3268125 -0.7573875 0.3354375 -0.757875 0.341625 -1.517175 0.6892499999999999 -0.7592812499999999 0.34237500000000004 -0.8739375 0.3879375c-0.10149375 -0.814875 -0.1527 -1.636875 -0.1527 -2.4615 0 -1.0005 0.075375 -1.9972499999999997 0.2245125 -2.982l0.70254375 -0.111 0.7554000000000001 -0.1325625 0.75526875 -0.14625 0.7552125000000001 -0.1605 0.75515625 -0.17550000000000002 0.7551375 -0.1906875 0.75515625 -0.2064375 0.75523125 -0.222375 0.7553249999999999 -0.23793750000000002 0.755475 -0.25349999999999995 0.7556625 -0.2686875 0.75586875 -0.283125 0.75613125 -0.296625 0.75643125 -0.309 0.75675 -0.319875 0.7571249999999999 -0.32925 0.7575000000000001 -0.3365625 0.7579125 -0.34181249999999996 1.5172125 -0.6892499999999999 0.7593 -0.3421875 0.7599374999999999 -0.33675 0.7605000000000001 -0.328125 0.7610625 -0.3166875 0.761625 -0.3020625 0.7603125000000001 -0.283875 0.7625625 -0.263625 0.7633125000000001 -0.240375 0.763875 -0.21412499999999998 0.7644375 -0.1858125 0.7649999999999999 -0.1550625 0.7655625 -0.12243749999999999 0.7661250000000001 -0.0886875 0.7661250000000001 -0.053625 0.7665 -0.018Z" stroke-width="1.875"></path><path fill="#5c7da2" d="m17.576062500000003 88.0288125 0.7583624999999999 0.0178125 0.758325 0.0530625 0.7584375000000001 0.08775000000000001 0.75825 0.1215 0.7584375000000001 0.1535625 0.7584375000000001 0.1843125 0.75825 0.212625 0.7584375000000001 0.2386875 0.75825 0.2623125 0.7584375000000001 0.283125 0.7584375000000001 0.30074999999999996 0.75825 0.3155625 0.7584375000000001 0.327375 0.7584375000000001 0.336 0.75825 0.34181249999999996 1.5166875 0.6890625 0.7584375000000001 0.342 0.7584375000000001 0.3369375 0.75825 0.3298125 0.7584375000000001 0.32062500000000005 0.75825 0.30975 0.7584375000000001 0.2975625 0.7584375000000001 0.2840625 0.75825 0.269625 0.7584375000000001 0.2544375 0.75825 0.2390625 0.7584375000000001 0.223125 0.7584375000000001 0.207375 0.75825 0.191625 0.7584375000000001 0.17625 0.6491250000000001 0.138c-0.1771875 0.5685 -0.38025000000000003 1.129875 -0.609 1.681875 -0.99225 2.3953125 -2.4465 4.572 -4.279875 6.405374999999999 -1.833375 1.833375 -4.0100625 3.2876250000000002 -6.405374999999999 4.279875 -2.3953125 0.99225 -4.9629375 1.503 -7.5556875 1.503s-5.16020625 -0.5107499999999999 -7.555574999999999 -1.503c-2.3953687500000003 -0.99225 -4.572018750000001 -2.4465 -6.40535625 -4.279875 -1.8333375 -1.833375 -3.28771875 -4.0100625 -4.2799125 -6.405374999999999 -0.6627 -1.5999374999999998 -1.1105999999999998 -3.2765625000000003 -1.335 -4.9861875l0.6167812500000001 -0.2739375 0.7583624999999999 -0.342 1.51674375 -0.6890625 0.7583624999999999 -0.34181249999999996 0.7583624999999999 -0.336 0.7583624999999999 -0.327375 0.7583624999999999 -0.3155625 0.7583624999999999 -0.30074999999999996 0.7583624999999999 -0.283125 0.7583624999999999 -0.2623125 0.7583624999999999 -0.2386875 0.7583624999999999 -0.212625 0.75838125 -0.1843125 0.7583624999999999 -0.1535625 0.7583624999999999 -0.1215 0.7583624999999999 -0.08775000000000001 0.7583624999999999 -0.0530625 0.7583624999999999 -0.0178125Z" stroke-width="1.875"></path><path fill="#444876" d="M19.09425 93.14025v2.5430625h4.55025v3.5120625h4.55025v2.40225h4.5500625v1.0139999999999998h4.55025l0.000375 0.8857499999999999c-0.14681249999999998 0.15675 -0.29625 0.31106249999999996 -0.4483125 0.463125 -1.833375 1.833375 -4.0100625 3.2878125000000002 -6.405374999999999 4.2800625000000005 -2.3953125 0.9920625000000001 -4.9629375 1.5028124999999999 -7.5556875 1.5028124999999999 -2.5925625 0 -5.1601687499999995 -0.5107499999999999 -7.555537500000001 -1.5028124999999999 -2.3953687500000003 -0.99225 -4.572018750000001 -2.4466875 -6.40535625 -4.2800625000000005 -1.3906125 -1.3905 -2.5632 -2.978625 -3.48144375 -4.71l0.0000375 -2.369625h4.55019375v-3.1691249999999997h4.55019375v-0.5715h4.5501Z" stroke-width="1.875"></path><path fill="#ffffff" d="m19.247999999999998 92.984625 0 2.542875 4.55025 0.0001875 -0.0001875 3.5116875 4.55025 0.000375 0 2.4020625 4.55025 0.0001875 0 1.013625 4.55025 0.000375 0 0.87375c-0.10237500000000001 0.1115625 -0.205875 0.22218749999999998 -0.31068749999999995 0.3316875l-0.000375 -0.8949375 -4.2391875 -0.000375 0.0001875 4.24875c-0.1029375 0.06075 -0.206625 0.12037499999999998 -0.310875 0.17925000000000002L32.5875 101.7525l-4.2391875 -0.0001875 0.0001875 7.2196875c-0.1033125 0.029812500000000002 -0.207 0.058687500000000004 -0.310875 0.0868125l-0.0001875 -9.708375 -4.239375 -0.0001875 0.0001875 10.37175c-0.1035 0.0046875 -0.2071875 0.008812500000000001 -0.310875 0.0118125l-0.0001875 -13.8954375 -4.2391875 -0.000375 0 13.5673125c-0.103875 -0.0195 -0.207375 -0.03975 -0.310875 -0.06075l0 -16.0494375H14.697637499999999l-0.00020625 14.6705625c-0.10396875 -0.0474375 -0.20750625 -0.09562499999999999 -0.31057500000000005 -0.14475000000000002l0.00007500000000000001 -13.9545H10.14748125l-0.000225 11.2186875c-0.10449375 -0.0883125 -0.208125 -0.1775625 -0.31083750000000004 -0.268125l0.0003375 -7.781250000000001H5.59730625l-0.0001875 2.5010625c-0.10685625 -0.1936875 -0.2104875 -0.3890625 -0.31085625 -0.5865l0.00045 -2.2250625 4.55011875 -0.0001875 0.00007500000000000001 -3.1689374999999997 4.55008125 -0.000375 0.0001125 -0.571125h4.8609Z" stroke-width="1.875"></path><path fill="#444876" d="M22.8853125 68.9895c2.7590625 0 5.4913125 0.5435625 8.040375 1.599375 2.5490625 1.0558125 4.8652500000000005 2.603625 6.8161875 4.5545625 1.951125 1.9509375 3.4987500000000002 4.267125 4.5545625 6.8161875 1.021875 2.46675 1.56375 5.10525 1.5976875 7.773375000000001l0.0016875 0.267 -0.0016875 0.2668125c-0.0339375 2.6683125 -0.5758125 5.306625 -1.5976875 7.773375000000001 -1.0558125 2.5490625 -2.6034375 4.8654375 -4.5545625 6.816375000000001 -1.9509375 1.9509375 -4.267125 3.4985625 -6.8161875 4.554374999999999 -2.5490625 1.056 -5.2813125 1.599375 -8.040375 1.599375 -2.7590625 0 -5.491218750000001 -0.543375 -8.0402625 -1.599375 -2.549025 -1.0558125 -4.86530625 -2.6034375 -6.81624375 -4.554374999999999 -1.9509562500000002 -1.9509375 -3.4986375 -4.2673125 -4.5544875000000005 -6.816375000000001C2.4184687499999997 95.49131249999999 1.875 92.7590625 1.875 90c0 -2.7590625 0.54346875 -5.4913125 1.5993187500000001 -8.040375 1.05585 -2.5490625 2.60353125 -4.8652500000000005 4.5544875000000005 -6.8161875 1.9509375 -1.9509375 4.2672187500000005 -3.4987500000000002 6.81624375 -4.5545625 2.54904375 -1.0558125 5.2812 -1.599375 8.0402625 -1.599375Zm0 0.69c-2.6683125 0 -5.31091875 0.5255624999999999 -7.776243750000001 1.5466875 -2.46534375 1.0213124999999998 -4.70555625 2.518125 -6.592443749999999 4.4049375 -1.8868875 1.887 -3.3837375 4.12725 -4.40491875 6.5925S2.56490625 87.33149999999999 2.56490625 90c0 2.6683125 0.52561875 5.3109375 1.5468 7.776187500000001 1.02118125 2.4654374999999997 2.51803125 4.7056875 4.40491875 6.5925 1.8868875 1.8868125 4.1270999999999995 3.3838125 6.592443749999999 4.4049375 2.465325 1.021125 5.10793125 1.546875 7.776243750000001 1.546875 2.6685 0 5.311125 -0.5257499999999999 7.776375000000001 -1.546875 2.46525 -1.021125 4.7055 -2.518125 6.5925 -4.4049375 1.8868125 -1.8868125 3.383625 -4.1270625 4.4049375 -6.5925 0.988125 -2.38575 1.512375 -4.937437500000001 1.545 -7.518187499999999L43.2058125 90l-0.0016875 -0.25818749999999996c-0.032625 -2.5805625 -0.556875 -5.1324375 -1.545 -7.518187499999999 -1.0213124999999998 -2.46525 -2.518125 -4.7055 -4.4049375 -6.5925 -1.887 -1.8868125 -4.12725 -3.383625 -6.5925 -4.4049375 -2.46525 -1.021125 -5.107875 -1.5466875 -7.776375000000001 -1.5466875Z" stroke-width="1.875"></path><path fill="#444876" d="M54.912375 87.538125c1.2196875 0 2.3499375000000002 0.23700000000000002 3.39075 0.7108125 1.04475 0.469875 1.8545625 1.2778125 2.4294375 2.423625l-2.2021875 1.4506875000000001c-0.3729375 -0.7186874999999999 -0.87 -1.289625 -1.491375 -1.7129999999999999 -0.6215625 -0.42318750000000005 -1.378875 -0.6348750000000001 -2.272125 -0.6348750000000001 -0.423375 0 -0.8525625 0.0504375 -1.2875625 0.1513125 -0.435 0.097125 -0.8272499999999999 0.25256249999999997 -1.1769375 0.46612499999999996 -0.3455625 0.2098125 -0.6253125 0.47587500000000005 -0.838875 0.7981875 -0.2098125 0.3223125 -0.314625 0.7205625 -0.314625 1.194375 0 0.8195625 0.285375 1.415625 0.8564999999999999 1.7885624999999998 0.5709375 0.37275 1.4293125 0.697125 2.5749375 0.9729375l2.4935625000000003 0.5941875c1.2195 0.271875 2.2333125000000003 0.825375 3.0412500000000002 1.6605 0.8077500000000001 0.8311875000000001 1.2118125 1.8680625 1.2118125 3.111 0 0.9438749999999999 -0.192375 1.7574375 -0.5769375 2.4410625 -0.38437499999999997 0.6836249999999999 -0.895125 1.2429375 -1.5320625 1.6779375 -0.6331875 0.435 -1.3595625 0.7515 -2.1789375 0.9496874999999999 -0.8195625 0.20193750000000002 -1.652625 0.3028125 -2.499375 0.3028125 -1.3400625 0 -2.588625 -0.2544375 -3.7460625 -0.7631249999999999 -1.1574375 -0.512625 -2.1459375 -1.3905 -2.9654999999999996 -2.6334375000000003l2.1264375 -1.4505c0.49724999999999997 0.796125 1.1244375 1.4311875 1.88175 1.905 0.7575000000000001 0.469875 1.658625 0.705 2.703375 0.705 0.4970625 0 0.9943124999999999 -0.056437499999999995 1.491375 -0.1689375 0.49724999999999997 -0.1126875 0.9380624999999999 -0.2855625 1.322625 -0.518625 0.3883125 -0.23681249999999998 0.6990000000000001 -0.5416875 0.9320625 -0.914625 0.23700000000000002 -0.3729375 0.35531250000000003 -0.8079375 0.35531250000000003 -1.305 0 -0.87 -0.3241875 -1.497375 -0.9729375 -1.88175 -0.644625 -0.3885 -1.425375 -0.6933750000000001 -2.3418750000000004 -0.9148125l-2.38875 -0.5593125c-0.2990625 -0.077625 -0.7029375 -0.20193750000000002 -1.2118125 -0.37275 -0.508875 -0.17475000000000002 -1.0059375 -0.435 -1.491375 -0.7807499999999999 -0.48562500000000003 -0.34950000000000003 -0.9029999999999999 -0.804 -1.2526875 -1.3633125 -0.3455625 -0.5591250000000001 -0.5184375 -1.250625 -0.5184375 -2.0739375 0 -0.8934375 0.1805625 -1.6760625 0.541875 -2.347875 0.361125 -0.672 0.8446875 -1.217625 1.4505 -1.6370624999999999 0.6099374999999999 -0.423375 1.2991875 -0.7398750000000001 2.0683124999999998 -0.9496874999999999 0.772875 -0.2135625 1.5691875 -0.3204375 2.3885625 -0.3204375Zm18.162000000000003 0c1.3166250000000002 0 2.4954375 0.23700000000000002 3.53625 0.7108125 1.0449375 0.469875 1.92075 1.09725 2.627625 1.88175 0.7108125 0.7807499999999999 1.2525000000000002 1.6993125 1.6254375 2.7556875 0.3729375 1.056375 0.5593125 2.1828749999999997 0.5593125 3.379125v1.1184375H66.88125000000001c0.073875 0.8701875 0.2855625 1.6895625 0.6350625 2.4586875 0.3496875 0.7689375 0.8098125 1.4330625 1.3807500000000001 1.992375 0.5709375 0.5593125 1.22925 1.0021875 1.9751249999999998 1.3284375 0.7456875 0.3223125 1.5534375 0.4835625 2.423625 0.4835625 1.3166250000000002 0 2.4526875 -0.304875 3.4081875000000004 -0.9148125 0.9592500000000002 -0.60975 1.6875 -1.3126875 2.18475 -2.109l1.8991874999999998 1.5673124999999999c-1.0410000000000001 1.3166250000000002 -2.1905625 2.2623749999999996 -3.4490624999999997 2.83725 -1.254375 0.5709375 -2.602125 0.8563125 -4.0430625 0.8563125 -1.293375 0 -2.4935625000000003 -0.229125 -3.6005624999999997 -0.687375 -1.1030625 -0.4621875 -2.0525625 -1.1030625 -2.848875 -1.9226250000000003 -0.796125 -0.8195625 -1.425375 -1.7885624999999998 -1.8875624999999998 -2.9071875 -0.4584375 -1.118625 -0.6875625000000001 -2.3381250000000002 -0.6875625000000001 -3.6586875 0 -1.3166250000000002 0.2233125 -2.5342499999999997 0.670125 -3.652875 0.45037499999999997 -1.118625 1.0719375 -2.087625 1.8643125 -2.9071875 0.796125 -0.8195625 1.7281875 -1.4583750000000002 2.7963750000000003 -1.916625 1.0719375 -0.4621875 2.229375 -0.6933750000000001 3.4723125 -0.6933750000000001Zm20.096062500000002 0c0.8428125 0 1.6565625 0.12431249999999999 2.4410625 0.3729375 0.7846875 0.2484375 1.4623125000000001 0.6271875 2.0332500000000002 1.1360625 0.5709375 0.5086875 1.0293750000000002 1.1495625 1.3749375 1.9224375000000002 0.3496875 0.7691250000000001 0.5244375 1.6876875 0.5244375 2.7556875v7.795125c0 0.672 0.0309375 1.3749375 0.0931875 2.109 0.06206249999999999 0.7303125 0.13012500000000002 1.332375 0.2038125 1.8061875h-2.3827499999999997c-0.073875 -0.423375 -0.13012500000000002 -0.8836875 -0.1689375 -1.3807500000000001 -0.0388125 -0.49724999999999997 -0.058312499999999996 -0.9808125 -0.058312499999999996 -1.4506875000000001h-0.0699375c-0.7224375 1.165125 -1.5748125 2.0041875 -2.5575 2.5168125 -0.9826875 0.5086875 -2.1808125 0.7631249999999999 -3.59475 0.7631249999999999 -0.772875 0 -1.5204374999999999 -0.1066875 -2.2428749999999997 -0.3204375 -0.7184999999999999 -0.209625 -1.3575 -0.532125 -1.9168125 -0.967125 -0.5593125 -0.435 -1.0078125 -0.9690000000000001 -1.3456875 -1.602 -0.334125 -0.6331875 -0.5011875 -1.3730624999999999 -0.5011875 -2.2198124999999997 0 -1.4176875 0.367125 -2.5303125 1.1011875 -3.33825 0.7340625000000001 -0.8079375 1.652625 -1.4098125000000001 2.7556875 -1.8059999999999998 1.107 -0.400125 2.2876875 -0.6487499999999999 3.54225 -0.7456875 1.2583125000000002 -0.1010625 2.4099375000000003 -0.1515 3.4546875 -0.1515h1.22925v-0.4486875c0 -3.0061875 -1.491375 -4.5091875 -4.4743125 -4.5091875 -2.0390625 0 -3.8160000000000003 0.6834375 -5.3308125 2.0506875l-1.491375 -1.7536875c1.639125 -1.6895625 4.0995 -2.5342499999999997 7.3815 -2.5342499999999997Zm14.5393125 -10.2886875v13.644375h0.07575c0.39618749999999997 -0.598125 0.868125 -1.1068125000000002 1.415625 -1.5262499999999999 0.5476875000000001 -0.423375 1.118625 -0.771 1.7129999999999999 -1.042875 0.598125 -0.2758125 1.2136875 -0.47587500000000005 1.8466875 -0.6001875 0.6371249999999999 -0.12431249999999999 1.2410625000000002 -0.186375 1.812 -0.186375 1.3670624999999998 0 2.6158125 0.23118750000000002 3.7460625 0.6933750000000001 1.13025 0.45825 2.1050625 1.0970624999999998 2.9246250000000003 1.916625 0.8233125 0.8195625 1.4641875 1.7885624999999998 1.9226250000000003 2.9071875 0.45825 1.118625 0.687375 2.33625 0.687375 3.652875 0 1.3205625 -0.229125 2.5400625 -0.687375 3.6586875 -0.4584375 1.118625 -1.0993125000000001 2.087625 -1.9226250000000003 2.9071875 -0.8195625 0.8195625 -1.7943749999999998 1.4604375 -2.9246250000000003 1.9226250000000003 -1.13025 0.45825 -2.379 0.687375 -3.7460625 0.687375 -0.5709375 0 -1.1748750000000001 -0.06206249999999999 -1.812 -0.186375 -0.633 -0.12431249999999999 -1.2485625 -0.3223125 -1.8466875 -0.5941875 -0.594375 -0.2758125 -1.1653125000000002 -0.6253125 -1.7129999999999999 -1.0486875 -0.5475 -0.423375 -1.0194375 -0.9322499999999999 -1.415625 -1.5264375000000001h-0.07575v2.9071875H105.25125V77.2494375h2.4585Zm28.671937500000002 10.2886875c1.3672499999999999 0 2.6158125 0.23118750000000002 3.7460625 0.6933750000000001 1.1341875 0.45825 2.1110624999999996 1.0970624999999998 2.9304375 1.916625 0.8195625 0.8195625 1.4585625 1.7885624999999998 1.9168125 2.9071875 0.4621875 1.118625 0.6933750000000001 2.33625 0.6933750000000001 3.652875 0 1.3205625 -0.23118750000000002 2.5400625 -0.6933750000000001 3.6586875 -0.45825 1.118625 -1.09725 2.087625 -1.9168125 2.9071875 -0.819375 0.8195625 -1.79625 1.4604375 -2.9304375 1.9226250000000003 -1.13025 0.45825 -2.3788125 0.687375 -3.7460625 0.687375 -1.339875 0 -2.577 -0.229125 -3.7111875000000003 -0.687375 -1.13025 -0.4621875 -2.1050625 -1.1030625 -2.9246250000000003 -1.9226250000000003 -0.8195625 -0.8195625 -1.46025 -1.7885624999999998 -1.9224375000000002 -2.9071875 -0.4584375 -1.118625 -0.6875625000000001 -2.3381250000000002 -0.6875625000000001 -3.6586875 0 -1.3166250000000002 0.229125 -2.5342499999999997 0.6875625000000001 -3.652875 0.4621875 -1.118625 1.1028749999999998 -2.087625 1.9224375000000002 -2.9071875 0.8195625 -0.8195625 1.7943749999999998 -1.4583750000000002 2.9246250000000003 -1.916625 1.1341875 -0.4621875 2.3713124999999997 -0.6933750000000001 3.7111875000000003 -0.6933750000000001Zm21.965062500000002 0c0.69525 0 1.3031249999999999 0.073875 1.823625 0.22143749999999998l-0.4835625 2.423625c-0.32249999999999995 -0.12431249999999999 -0.7942499999999999 -0.18656250000000002 -1.4158125 -0.18656250000000002 -0.9436874999999999 0 -1.751625 0.18075 -2.423625 0.541875 -0.6718125 0.361125 -1.231125 0.8214374999999999 -1.67775 1.3807500000000001 -0.446625 0.5593125 -0.7768125 1.16325 -0.9905625 1.8118125 -0.209625 0.6448125 -0.3144375 1.2643125 -0.3144375 1.8585v9.846h-2.4586875v-12.007312500000001c0 -0.7691250000000001 -0.0193125 -1.55175 -0.058124999999999996 -2.347875 -0.039 -0.7963125000000001 -0.0699375 -1.8275625 -0.093375 -3.0935625h2.423625v3.2450625h0.07575c0.17475000000000002 -0.47400000000000003 0.423375 -0.9283125 0.7456875 -1.3633125 0.32249999999999995 -0.435 0.7128749999999999 -0.825375 1.171125 -1.171125 0.4621875 -0.34950000000000003 0.9961875 -0.6290625000000001 1.6021875 -0.838875 0.60975 -0.2135625 1.3010625 -0.3204375 2.0739375 -0.3204375Zm13.218 0c2.23725 0 3.8898750000000004 0.5904375000000001 4.9578750000000005 1.771125 1.0681875 1.1806875000000001 1.6021875 2.8644375 1.6021875 5.0510625000000005v11.075249999999999h-2.4585v-9.6594375c0 -1.9381875000000002 -0.336 -3.421875 -1.008 -4.4510625 -0.6718125 -1.033125 -1.9147500000000002 -1.5496875 -3.728625 -1.5496875 -0.12431249999999999 0 -0.47193749999999995 0.0504375 -1.042875 0.1513125 -0.5709375 0.097125 -1.1748750000000001 0.37106249999999996 -1.8118125 0.8216249999999999 -0.633 0.446625 -1.198125 1.1165625000000001 -1.695375 2.0098125000000002 -0.4970625 0.8934375 -0.7456875 2.1361875 -0.7456875 3.728625v8.9488125h-2.4585v-13.6095c0 -0.47381249999999997 -0.0195 -1.0700625 -0.058312499999999996 -1.7885624999999998 -0.0350625 -0.7224375 -0.077625 -1.4060625 -0.12825 -2.0506875h2.5344374999999997c0.0504375 0.469875 0.0815625 0.9359999999999999 0.0931875 1.3981875000000001 0.011625 0.45825 0.017437499999999998 0.924375 0.017437499999999998 1.3981875000000001h0.07575c0.271875 -0.47381249999999997 0.6195 -0.9088125 1.042875 -1.305 0.423375 -0.400125 0.895125 -0.7419375 1.415625 -1.0254375 0.5244375 -0.2874375 1.07775 -0.5107499999999999 1.6605 -0.6699375 0.5865 -0.163125 1.165125 -0.2446875 1.7360624999999998 -0.2446875Zm-74.47931249999999 9.2109375h-1.2699375c-0.6215625 0 -1.3983750000000001 0.0309375 -2.3304375 0.0931875 -0.9322499999999999 0.06206249999999999 -1.827375 0.2116875 -2.6857499999999996 0.4485 -0.8544375 0.23306249999999998 -1.586625 0.598125 -2.196375 1.0953750000000002 -0.60975 0.4970625 -0.9148125 1.1806875000000001 -0.9148125 2.0506875 0 0.574875 0.11850000000000001 1.0681875 0.3555 1.4797500000000001 0.23681249999999998 0.4078125 0.5535 0.7419375 0.9496874999999999 1.0021875 0.396 0.26025000000000004 0.8370000000000001 0.446625 1.3224375000000002 0.5593125 0.4854375 0.11249999999999999 0.976875 0.1689375 1.4739375000000001 0.1689375 0.89325 0 1.6700625 -0.14962499999999998 2.3304375 -0.4486875 0.6601875 -0.2990625 1.2136875 -0.7029375 1.6603124999999999 -1.2118125 0.446625 -0.5086875 0.7749375000000001 -1.1049375000000001 0.9845625 -1.7885624999999998 0.21375 -0.6836249999999999 0.3204375 -1.411875 0.3204375 -2.18475v-1.264125Zm17.487375 -6.9736875000000005c-1.0214999999999999 0 -1.955625 0.1805625 -2.802375 0.5416875 -0.8428125 0.36131250000000004 -1.575 0.8525625 -2.196375 1.4739375000000001 -0.6213749999999999 0.6215625 -1.107 1.3556249999999999 -1.4565000000000001 2.202375 -0.34575 0.8428125 -0.5184375 1.7476875 -0.5184375 2.7148125 0 0.9710625 0.1726875 1.879875 0.5184375 2.726625 0.34950000000000003 0.8428125 0.835125 1.5748125 1.4565000000000001 2.196375 0.6213749999999999 0.6213749999999999 1.3535625 1.1128125 2.196375 1.4739375000000001 0.84675 0.361125 1.780875 0.541875 2.802375 0.541875 1.0175625 0 1.9303125 -0.18075 2.7380625 -0.541875 0.8079375 -0.361125 1.497375 -0.8525625 2.0683124999999998 -1.4739375000000001 0.574875 -0.6215625 1.0175625 -1.3535625 1.3282500000000002 -2.196375 0.310875 -0.84675 0.46612499999999996 -1.7555625000000001 0.46612499999999996 -2.726625 0 -0.967125 -0.15525 -1.8719999999999999 -0.46612499999999996 -2.7148125 -0.31068749999999995 -0.84675 -0.753375 -1.5808125 -1.3282500000000002 -2.202375 -0.5709375 -0.6213749999999999 -1.260375 -1.112625 -2.0683124999999998 -1.4739375000000001 -0.8077500000000001 -0.361125 -1.7205 -0.5416875 -2.7380625 -0.5416875Zm21.808875 0c-1.0175625 0 -1.9303125 0.1805625 -2.73825 0.5416875 -0.8077500000000001 0.36131250000000004 -1.491375 0.8525625 -2.0506875 1.4739375000000001 -0.5593125 0.6215625 -0.9943124999999999 1.3556249999999999 -1.305 2.202375 -0.31068749999999995 0.8428125 -0.46612499999999996 1.7476875 -0.46612499999999996 2.7148125 0 0.9710625 0.1554375 1.879875 0.46612499999999996 2.726625 0.31068749999999995 0.8428125 0.7456875 1.5748125 1.305 2.196375 0.5593125 0.6213749999999999 1.2429375 1.1128125 2.0506875 1.4739375000000001 0.8079375 0.361125 1.7206875 0.541875 2.73825 0.541875 1.0214999999999999 0 1.9361249999999999 -0.18075 2.7440625 -0.541875 0.8079375 -0.361125 1.4971875 -0.8525625 2.0681249999999998 -1.4739375000000001 0.5709375 -0.6215625 1.0119375 -1.3535625 1.322625 -2.196375 0.31068749999999995 -0.84675 0.46612499999999996 -1.7555625000000001 0.46612499999999996 -2.726625 0 -0.967125 -0.1554375 -1.8719999999999999 -0.46612499999999996 -2.7148125 -0.31068749999999995 -0.84675 -0.7516875 -1.5808125 -1.322625 -2.202375 -0.5709375 -0.6213749999999999 -1.2601875 -1.112625 -2.0681249999999998 -1.4739375000000001 -0.8079375 -0.361125 -1.7225625 -0.5416875 -2.7440625 -0.5416875Zm-63.3073125 0c-0.7963125000000001 0 -1.5673124999999999 0.15525 -2.313 0.4659375 -0.7456875 0.310875 -1.3981875000000001 0.7282500000000001 -1.9575 1.2526875 -0.5593125 0.5205000000000001 -1.0078125 1.1165625000000001 -1.3456875 1.7885624999999998 -0.334125 0.6680625 -0.5011875 1.3633125 -0.5011875 2.08575h11.78025c0 -1.6663125 -0.49724999999999997 -3.0140624999999996 -1.4915625 -4.0432500000000005 -0.9943124999999999 -1.033125 -2.384625 -1.5496875 -4.1713125 -1.5496875Z" stroke-width="1.875"></path></svg>