<svg xmlns="http://www.w3.org/2000/svg" fill="none" viewBox="0 0 150 150" id="Selenium--Streamline-Svg-Logos" height="150" width="150"><desc>Selenium Streamline Icon: https://streamlinehq.com</desc><path fill="#2cb134" d="M133.11890625 1.564375c0.35875 -0.022656250000000003 0.6990625 0.16075 0.87734375 0.47281249999999997 0.17828125 0.312046875 0.16359375 0.6983750000000001 -0.038125 0.9959062499999999L97.66 52.33984375c-0.2659375 0.30031250000000004 -0.64796875 0.47218750000000004 -1.0490625 0.47218750000000004s-0.783125 -0.171875 -1.0490625 -0.47218750000000004l-12.79875 -14.2675c-0.31265625 -0.32453125 -0.755625 -0.48953125000000003 -1.204375 -0.44875000000000004 -0.44875000000000004 0.040781250000000005 -0.8546875 0.283125 -1.1035937500000002 0.65859375l-7.7632812499999995 9.86140625c-0.245625 0.5553125 -0.16484374999999998 1.20078125 0.20984375 1.6784375l23.079687500000002 23.9190625c0.26609375 0.30031250000000004 0.64796875 0.47218750000000004 1.04921875 0.47218750000000004 0.40109374999999997 0 0.78296875 -0.171875 1.0490625 -0.47218750000000004l45.32015625 -50.9853125c0.26765625000000004 -0.2875 0.6823437499999999 -0.38515625 1.0501562500000001 -0.24734375 0.3678125 0.13796875 0.6159375 0.48421875000000003 0.6284375 0.8768750000000001v124.00125c0.01734375 0.28328125 -0.08750000000000001 0.5603125 -0.288125 0.7609374999999999 -0.20078125 0.20062499999999997 -0.47781250000000003 0.30546875 -0.7609374999999999 0.288125H5.970375c-0.283203125 0.01734375 -0.56025 -0.08750000000000001 -0.760875 -0.288125 -0.20062499999999997 -0.20062499999999997 -0.305578125 -0.47765625000000006 -0.288203125 -0.7609374999999999V2.61346875c-0.017374999999999998 -0.283203125 0.087578125 -0.56025 0.288203125 -0.760875 0.20062499999999997 -0.200640625 0.47767187499999997 -0.305575 0.760875 -0.28821875H133.11890625Zm-35.668749999999996 83.71656250000001c-6.24640625 -0.10984375 -12.266406250000001 2.3378125 -16.66421875 6.77515625 -4.3978125 4.43734375 -6.79125 10.4790625 -6.6253125 16.724375 0 14.4771875 10.49078125 23.709218749999998 24.12890625 23.709218749999998 6.313125 0.15703125 12.50390625 -1.7590624999999998 17.62453125 -5.4553125 0.47468750000000004 -0.4309375 0.56375 -1.14390625 0.20968750000000003 -1.6784375l-3.7765625 -5.66515625c-0.4246875 -0.486875 -1.1471875 -0.5771875 -1.67859375 -0.20968750000000003 -3.2826562500000005 2.24171875 -7.14609375 3.4809374999999996 -11.1203125 3.566875 -7.343437499999999 0 -11.959375 -4.61609375 -12.79875 -10.07125 0.0153125 -0.22515625 0.19453125 -0.404375 0.4196875 -0.4196875h31.682187499999998c0.6754687500000001 -0.045625 1.2132812499999999 -0.5834375 1.25890625 -1.25890625v-1.25875c0 -14.687187500000002 -9.231875 -24.7584375 -22.66015625 -24.7584375Zm-31.2625 -7.97296875c-6.372812499999999 -5.2090625 -14.436562499999999 -7.89703125 -22.66015625 -7.55328125 -14.2675 0 -23.079843750000002 8.3925 -23.079843750000002 18.46375 0 22.869999999999997 34.82953125 15.526406249999999 34.82953125 26.22703125 0 3.35703125 -3.35703125 6.7140625 -10.49078125 6.7140625 -6.7753125 0.0559375 -13.31203125 -2.49859375 -18.2540625 -7.13375 -0.295 -0.27578125 -0.6946875 -0.4109375 -1.09671875 -0.37078125 -0.401875 0.040156250000000004 -0.766875 0.251875 -1.00140625 0.580625l-5.4553125 7.5534375c-0.35390625000000003 0.53453125 -0.26484375000000004 1.2475 0.20984375 1.6784375 5.665 5.24546875 13.638125 8.81234375 24.75828125 8.81234375 16.36578125 0 24.33875 -8.39265625 24.75828125 -19.303124999999998 0 -22.66015625 -34.829375 -16.15578125 -34.829375 -25.80734375 0 -3.566875 3.1471875000000002 -6.0846875 8.602500000000001 -6.0846875 6.013437499999999 -0.08234375 11.870156249999999 1.91921875 16.57546875 5.665 0.2765625 0.22671875000000002 0.6328125 0.3321875 0.9882812499999999 0.29265625 0.35546875 -0.03953125 0.67984375 -0.220625 0.8999999999999999 -0.5025l5.45515625 -7.343437499999999c0.22671875000000002 -0.27671875 0.3321875 -0.6329687500000001 0.29265625 -0.9884375000000001 -0.03953125 -0.3553125 -0.220625 -0.67984375 -0.50234375 -0.8999999999999999Zm31.472343749999997 17.205000000000002c5.706875 -0.31921875 10.63328125 3.9565625 11.1203125 9.651562499999999 -0.0153125 0.22499999999999998 -0.19453125 0.404375 -0.4196875 0.41953125H86.95937500000001c-0.22515625 -0.01515625 -0.404375 -0.19453125 -0.4196875 -0.41953125 0.7015625 -5.583125 5.4940625 -9.74265625 11.1203125 -9.651562499999999Z" stroke-width="1.5625"></path></svg>